<svg width="644" height="644" viewBox="0 0 644 644" fill="none" xmlns="http://www.w3.org/2000/svg">
<g clip-path="url(#clip0_2433_8)">
<g opacity="0.5">
<path d="M1 321.61C1 144.55 144.52 1 321.61 1C498.7 1 642.19 144.55 642.19 321.61C642.19 498.67 498.69 642.22 321.61 642.22C144.53 642.22 1 498.65 1 321.61Z" stroke="#527B70" stroke-width="2" stroke-linejoin="round"/>
<path d="M373.789 66.3899V270.12H577.549C556.789 167.79 476.179 87.1599 373.789 66.3899Z" stroke="#527B70" stroke-width="2" stroke-linejoin="round"/>
<path d="M373.789 374.71V578.4C476.179 557.61 556.749 477.03 577.549 374.71H373.789Z" stroke="#527B70" stroke-width="2" stroke-linejoin="round"/>
<path d="M65.5391 270.12H269.109V66.4199C166.809 87.2599 86.2991 167.85 65.5391 270.12Z" stroke="#527B70" stroke-width="2" stroke-linejoin="round"/>
<path d="M65.5898 374.71C86.3498 476.98 166.86 557.51 269.12 578.36V374.71H65.5898Z" stroke="#527B70" stroke-width="2" stroke-linejoin="round"/>
<path d="M2.33008 322.4L321.42 322.42V641.62L321.56 322.42H639.93L321.56 322.4C321.56 322.4 321.47 3.03003 321.42 3.03003V322.4H2.33008Z" stroke="#527B70" stroke-width="2" stroke-linejoin="round"/>
</g>
</g>
<defs>
<clipPath id="clip0_2433_8">
<rect width="643.19" height="643.22" fill="white"/>
</clipPath>
</defs>
</svg>
