<svg width="519" height="520" viewBox="0 0 519 520" fill="none" xmlns="http://www.w3.org/2000/svg">
<path d="M264.648 518.116C266.162 379.778 377.998 267.942 516.343 266.421M252.699 518.117C251.171 379.778 139.35 267.942 1.004 266.422M518.121 252.695C379.783 251.167 267.947 139.346 266.426 1M252.706 2.77C251.185 141.115 139.349 252.951 1.004 254.471M315.594 475.329H473.562V317.333C394.635 334.261 332.516 396.395 315.594 475.329ZM201.751 475.33H43.783V317.334C122.696 334.262 184.83 396.395 201.751 475.33ZM475.333 201.748V43.78H317.337C334.265 122.693 396.398 184.827 475.333 201.748ZM516.35 2.774H1V518.123H516.35V2.774ZM201.758 45.571H43.79V203.552C122.71 186.631 184.844 124.498 201.751 45.564L201.758 45.571ZM258.672 358.883L160.222 260.46L258.672 162.01L357.102 260.453L258.672 358.883Z" stroke="#A69380" stroke-width="2" stroke-miterlimit="10"/>
</svg>
