<svg width="555" height="555" viewBox="0 0 555 555" fill="none" xmlns="http://www.w3.org/2000/svg">
<g clip-path="url(#clip0_2433_6)">
<path d="M494.84 446.83C510.33 426.98 523.18 404.98 532.83 381.32L481.72 397.99L494.84 446.83ZM385 531.35C408.33 521.44 429.98 508.36 449.51 492.73L397.43 482.4L385 531.35ZM236.7 550.25C249.9 552.19 263.38 553.22 277.11 553.22C289.15 553.22 300.99 552.37 312.62 550.87L279.81 514.92L236.7 550.25ZM109.82 496.74C131.08 512.95 154.76 526.16 180.23 535.7L160.57 481.36L109.82 496.74ZM21.43 381.38C32.02 407.33 46.39 431.33 63.95 452.64L75.15 394.77L21.43 381.38ZM3.13 243.31C1.77 254.4 1 265.66 1 277.12C1 293.12 2.44 308.78 5.05 324.04L42.22 280.11L3.13 243.31ZM60.68 105.76C44.53 126.13 31.2 148.81 21.27 173.25L70.83 161.48L60.68 105.76ZM168.89 23.03C144.26 33.54 121.46 47.51 101.13 64.35L158.01 73.49L168.89 23.03ZM325.64 5.33C309.88 2.54 293.68 1 277.12 1C266.3 1 255.64 1.68 245.15 2.9L282.91 42.22L325.64 5.33ZM455.86 66.73C434.98 48.98 411.45 34.26 385.92 23.29L400.13 78.08L455.86 66.73ZM535.44 179.54C525.59 153.46 511.89 129.31 495.06 107.68L480.56 161.61L535.44 179.54ZM549.11 324.43C551.77 309.05 553.24 293.25 553.24 277.12C553.24 263.27 552.19 249.67 550.22 236.37L507.92 279.65L549.11 324.43ZM97.26 151.94L222.1 218.27L148.11 98.09L89.94 93.5L97.25 151.94H97.26ZM50.08 256.48L191.44 258L70.47 185.29L16.7 207.96L50.08 256.48ZM70.19 373.17L191.35 300.33L50.23 301.85L16.33 349.35L70.2 373.18L70.19 373.17ZM145.05 463.48L211.61 338.76L91.3 412.54L86.61 470.7L145.06 463.49L145.05 463.48ZM252.13 505.98L253.98 364.62L180.98 485.4L203.52 539.22L252.13 505.97V505.98ZM367.2 484.06L297.19 361.25L295.43 502.37L342.13 537.35L367.2 484.05V484.06ZM453.7 411.55L332.28 339.15L400.26 462.84L458.14 470.27L453.7 411.55ZM498.59 302.62L357.26 299.2L477.24 373.54L531.3 351.59L498.59 302.61V302.62ZM472.68 182.51L351.75 255.72L492.87 253.75L526.61 206.16L472.67 182.51H472.68ZM405.59 102.42L332.63 223.51L456.63 156.09L464.33 98.25L405.59 102.42ZM302.01 61.62L290.7 202.53L371.62 86.9L352.74 31.7L302.02 61.62H302.01ZM185.79 77.79L251.86 202.77L258.1 61.77L212.54 25.33L185.79 77.79Z" stroke="#877D4D" stroke-width="2" stroke-linejoin="round"/>
</g>
<defs>
<clipPath id="clip0_2433_6">
<rect width="554.24" height="554.24" fill="white"/>
</clipPath>
</defs>
</svg>
