<svg id="blueprint" xmlns="http://www.w3.org/2000/svg" width="70" height="70" viewBox="0 0 70 70">
  <path id="Path_36481" data-name="Path 36481" d="M152.7,157.185V145.96h-5.353a18.975,18.975,0,0,0-1.366-3.3l3.783-3.783-7.937-7.937-3.783,3.783a19.1,19.1,0,0,0-3.3-1.366V128h-5.261l-.351,11.252v1.1a11.225,11.225,0,1,1,0,22.45v6.735a8.937,8.937,0,0,1-1.081,4.273L128,175.145h6.735v-5.353a18.975,18.975,0,0,0,3.3-1.366l3.783,3.783,7.937-7.937-3.783-3.783a19.1,19.1,0,0,0,1.366-3.3Z" transform="translate(-109.878 -109.636)" fill="#ffa64d"/>
  <g id="Group_15298" data-name="Group 15298">
    <path id="Path_36482" data-name="Path 36482" d="M65.484,13.548V12.2L61.306,1.758a2.8,2.8,0,0,0-5.194,0L51.935,12.2v1.346H20.256A10.159,10.159,0,0,0,0,14.677V59.839A10.173,10.173,0,0,0,10.161,70H70V13.548Zm-7.9,0v23.71H54.194V13.548ZM54.194,39.516h9.032v4.516A1.13,1.13,0,0,1,62.1,45.161H55.323a1.13,1.13,0,0,1-1.129-1.129Zm9.032-2.258H59.839V13.548h3.387ZM58.21,2.6a.561.561,0,0,1,1,0l3.477,8.694H54.732ZM22.016,46.665a5.633,5.633,0,0,1-1.694.629V36.244a5.645,5.645,0,0,1,3.188,9.168l1.725,1.458a7.9,7.9,0,0,0-4.914-12.908V31.68a10.157,10.157,0,0,1,0,20.189V49.59a7.875,7.875,0,0,0,2.824-.972ZM2.258,14.677a7.9,7.9,0,0,1,15.806,0V53.466a10.137,10.137,0,0,0-15.806,0Zm0,45.161a7.9,7.9,0,1,1,7.9,7.9A7.913,7.913,0,0,1,2.258,59.839Zm65.484,7.9H16.534a10.142,10.142,0,0,0,3.789-7.9v-5.7a12.413,12.413,0,0,0,0-24.724V15.806H51.935V44.032a3.391,3.391,0,0,0,3.387,3.387H62.1a3.391,3.391,0,0,0,3.387-3.387V15.806h2.258Z" fill="#333"/>
    <path id="Path_36483" data-name="Path 36483" d="M304,367.715h22.45V352H304Zm2.245-13.47h17.96V365.47h-17.96Z" transform="translate(-260.94 -302.205)" fill="#333"/>
    <rect id="Rectangle_9175" data-name="Rectangle 9175" width="9" height="3" transform="translate(52.404 53.921)" fill="#333"/>
    <rect id="Rectangle_9176" data-name="Rectangle 9176" width="2" height="3" transform="translate(47.281 53.921)" fill="#333"/>
    <rect id="Rectangle_9177" data-name="Rectangle 9177" width="9" height="2" transform="translate(47.314 59)" fill="#333"/>
    <rect id="Rectangle_9178" data-name="Rectangle 9178" width="3" height="2" transform="translate(58.404 59)" fill="#333"/>
    <path id="Path_36484" data-name="Path 36484" d="M37.613,384a5.613,5.613,0,1,0,0,11.225V392.98a3.368,3.368,0,1,1,3.368-3.368h2.245A5.619,5.619,0,0,0,37.613,384Z" transform="translate(-27.51 -329.715)" fill="#333"/>
  </g>
</svg>
