<svg xmlns="http://www.w3.org/2000/svg" width="70.028" height="70.028" viewBox="0 0 70.028 70.028"><g transform="translate(10.211 3.078)"><rect width="8.222" height="2.259" transform="matrix(-0.274, 0.962, -0.962, -0.274, 4.427, 0.62)" fill="#f9ba48"/><rect width="9.314" height="2.258" transform="translate(8.955 8.49) rotate(104.022)" fill="#f9ba48"/><rect width="11.518" height="2.259" transform="translate(13.487 16.35) rotate(101.321)" fill="#f9ba48"/><rect width="12.628" height="2.258" transform="matrix(-0.179, 0.984, -0.984, -0.179, 20.265, 28.748)" fill="#f9ba48"/></g><g transform="translate(5.647)"><path d="M96.474,54.215H87.438V51.956H97.6V37.273H94.215V23.719H73.884A3.393,3.393,0,0,0,70.5,27.108V41.715L48.55,2a3.884,3.884,0,0,0-3.4-2h-.139a3.882,3.882,0,0,0-3.492,5.582L42.259,7.1V32.963A3.384,3.384,0,0,0,40,36.143V38.4h2.259V36.143a1.129,1.129,0,0,1,2.259,0V38.4h2.259V36.143a3.384,3.384,0,0,0-2.259-3.181V11.743L60.842,45.3l-.512.128v6.53h6.777v2.259H58.072a7.906,7.906,0,1,0,0,15.813h38.4a7.906,7.906,0,1,0,0-15.813ZM73.884,25.978H91.956V37.554l-2.259.562v-9.88H75.014V41.772l-2.259.562V27.108A1.13,1.13,0,0,1,73.884,25.978Zm13.554,12.7-10.165,2.53V30.5H87.438ZM43.552,4.592a1.623,1.623,0,0,1,1.46-2.334h.139a1.625,1.625,0,0,1,1.422.838L68.8,43.318l-5.719,1.423Zm19.037,42.6,30.635-7.659h2.12v5.647H93.086v2.259h2.259V49.7H62.59Zm6.777,4.765H85.179v2.259H69.367ZM96.474,67.769h-38.4a5.647,5.647,0,1,1,0-11.295h38.4a5.647,5.647,0,1,1,0,11.295Z" transform="translate(-40 0)" fill="#333"/><path d="M140.518,408a4.518,4.518,0,1,0,4.518,4.518A4.522,4.522,0,0,0,140.518,408Zm0,6.777a2.259,2.259,0,1,1,2.259-2.259A2.261,2.261,0,0,1,140.518,414.777Z" transform="translate(-122.446 -350.396)" fill="#333"/><path d="M412.518,408a4.518,4.518,0,1,0,4.518,4.518A4.523,4.523,0,0,0,412.518,408Zm0,6.777a2.259,2.259,0,1,1,2.259-2.259A2.261,2.261,0,0,1,412.518,414.777Z" transform="translate(-356.044 -350.396)" fill="#333"/><ellipse cx="1" cy="1.5" rx="1" ry="1.5" transform="translate(25.353 57.358)" fill="#333"/><circle cx="1.5" cy="1.5" r="1.5" transform="translate(29.353 57.358)" fill="#333"/><ellipse cx="1" cy="1.5" rx="1" ry="1.5" transform="translate(34.353 57.358)" fill="#333"/><ellipse cx="1" cy="1.5" rx="1" ry="1.5" transform="translate(38.353 57.358)" fill="#333"/><ellipse cx="1" cy="1.5" rx="1" ry="1.5" transform="translate(43.353 57.358)" fill="#333"/><ellipse cx="1" cy="1.5" rx="1" ry="1.5" transform="translate(47.353 57.358)" fill="#333"/><circle cx="1" cy="1" r="1" transform="translate(25.353 64.358)" fill="#333"/><ellipse cx="1.5" cy="1" rx="1.5" ry="1" transform="translate(29.353 64.358)" fill="#333"/><circle cx="1" cy="1" r="1" transform="translate(34.353 64.358)" fill="#333"/><circle cx="1" cy="1" r="1" transform="translate(38.353 64.358)" fill="#333"/><circle cx="1" cy="1" r="1" transform="translate(43.353 64.358)" fill="#333"/><circle cx="1" cy="1" r="1" transform="translate(47.353 64.358)" fill="#333"/><rect width="13" height="3" transform="translate(37.353 45.358)" fill="#333"/></g><path d="M9.036,282.072a9.036,9.036,0,1,1,9.036-9.036A9.046,9.046,0,0,1,9.036,282.072Z" transform="translate(0 -226.727)" fill="#f9ba48"/></svg>