<svg enable-background="new 0 0 512 512" width="70" viewBox="0 0 512 512" xmlns="http://www.w3.org/2000/svg"><g><g><path d="m461.095 348.852h-31.594c-1.814 0-3.486-.983-4.369-2.569l-133.21-239.41 8.738-4.861 131.78 236.841h21.398l-113.831-298.777c-3.84-10.078-10.55-16.455-19.403-18.441-9.795-2.192-21.188 1.544-29.741 9.764l-15.993 15.365-6.928-7.211 15.992-15.366c11.108-10.674 25.635-15.275 38.857-12.31 12.108 2.717 21.541 11.466 26.559 24.638l116.416 305.557c.586 1.537.378 3.264-.555 4.617-.933 1.355-2.472 2.163-4.116 2.163z" fill="#1a3b70"/></g><g><path d="m107.22 295.997h-10v-40.027c0-26.127 7.662-50.863 23.423-75.624 12.669-19.902 30.838-39.976 55.546-61.366l91.945-79.601c6.921-5.991 15.85-8.841 25.144-8.031 9.327.815 18.033 5.408 23.886 12.603 12.289 15.108 11.685 34.887-1.47 48.096l-97.46 97.866-7.086-7.057 97.46-97.866c9.563-9.603 9.884-23.559.798-34.729-4.154-5.107-10.351-8.37-16.999-8.951-6.57-.576-12.869 1.424-17.728 5.63l-91.945 79.601c-52.225 45.212-75.514 85.13-75.514 129.43z" fill="#1a3b70"/></g><g><path d="m285.602 408.673h-10v-18.878h10zm-136.94 0h-10v-18.878h10z" fill="#1a3b70"/></g><g><path d="m314.52 501.006h-204.777c-26.834 0-48.666-21.832-48.666-48.666 0-26.835 21.832-48.667 48.666-48.667h204.777c26.835 0 48.667 21.832 48.667 48.667 0 26.834-21.833 48.666-48.667 48.666zm-204.777-87.333c-21.32 0-38.666 17.346-38.666 38.667 0 21.32 17.346 38.666 38.666 38.666h204.777c21.321 0 38.667-17.346 38.667-38.666 0-21.321-17.346-38.667-38.667-38.667z" fill="#1a3b70"/></g><g><path d="m293.745 468.23h-163.227v-10h163.228v10zm0-21.781h-163.227v-10h163.228v10z" fill="#1a3b70"/></g><g><path d="m309.251 476.286c-13.204 0-23.946-10.742-23.946-23.946s10.742-23.947 23.946-23.947 23.947 10.743 23.947 23.947-10.743 23.946-23.947 23.946zm0-37.894c-7.69 0-13.946 6.257-13.946 13.947s6.256 13.946 13.946 13.946 13.947-6.256 13.947-13.946-6.257-13.947-13.947-13.947zm-194.239 37.894c-13.204 0-23.946-10.742-23.946-23.946s10.742-23.947 23.946-23.947 23.947 10.743 23.947 23.947-10.743 23.946-23.947 23.946zm0-37.894c-7.69 0-13.946 6.257-13.946 13.947s6.256 13.946 13.946 13.946 13.947-6.256 13.947-13.946-6.257-13.947-13.947-13.947z" fill="#1a3b70"/></g><g><path d="m296.908 394.795h-260.819c-13.78 0-24.992-11.211-24.992-24.991v-53.815c0-13.78 11.212-24.991 24.992-24.991h120.863v-84.622c0-13.78 11.212-24.991 24.992-24.991h79.982c10.519 0 19.703 6.363 23.399 16.212l33.707 89.854c1.982 5.283 2.866 10.156 2.866 15.8v66.554c.001 13.779-11.21 24.99-24.99 24.99zm-260.819-93.798c-8.267 0-14.992 6.725-14.992 14.991v53.815c0 8.267 6.726 14.991 14.992 14.991h260.819c8.267 0 14.991-6.725 14.991-14.991v-66.553c0-4.448-.667-8.123-2.229-12.287l-33.707-89.854c-2.251-5.998-7.629-9.725-14.036-9.725h-79.982c-8.267 0-14.992 6.725-14.992 14.991v89.622c0 2.762-2.238 5-5 5z" fill="#f88125"/></g><g><path d="m296.908 354.812h-53.627c-1.853 0-3.553-1.024-4.419-2.661l-27.078-51.154h-29.841c-2.762 0-5-2.238-5-5v-89.623c0-2.762 2.238-5 5-5l79.983.001c2.084 0 3.949 1.293 4.682 3.244l33.708 89.853c1.115 2.973 1.592 5.599 1.592 8.778v46.562c0 2.762-2.238 5-5 5zm-50.616-10h45.616v-41.562c0-1.984-.259-3.411-.954-5.266l-32.492-86.609-71.519-.001v79.623h27.852c1.853 0 3.553 1.024 4.419 2.661z" fill="#f88125"/></g><g><path d="m181.943 394.795c-2.762 0-5-2.238-5-5v-39.982c0-2.762 2.238-5 5-5s5 2.238 5 5v39.982c0 2.761-2.238 5-5 5z" fill="#f88125"/></g><g><path d="m121.513 359.621h-63.789c-2.762 0-5-2.238-5-5s2.238-5 5-5h63.789c2.762 0 5 2.238 5 5s-2.239 5-5 5zm0-23.45h-63.789c-2.762 0-5-2.238-5-5s2.238-5 5-5h63.789c2.762 0 5 2.238 5 5s-2.239 5-5 5z" fill="#1a3b70"/></g><g><path d="m417.397 501.006c-.841 0-1.683-.212-2.442-.638-1.6-.896-2.58-2.594-2.557-4.426l.204-15.998c.011-.896.264-1.774.73-2.54l11.168-18.314v-114.536c0-2.762 2.238-5 5-5s5 2.238 5 5v115.939c0 .918-.253 1.819-.731 2.604l-11.186 18.344-.069 5.427 56.73-35.775c7.518-4.741 11.658-12.247 11.658-21.137v-38.009c0-16.186-12.2-23.652-24.809-27.975v57.33c0 2.762-2.238 5-5 5s-5-2.238-5-5v-63.972c-.002-.074-.002-.149 0-.225v-12.552c0-2.762 2.238-5 5-5s5 2.238 5 5v8.883c12.209 3.632 34.809 12.488 34.809 38.51v38.009c0 12.266-5.95 23.053-16.324 29.596l-64.515 40.684c-.812.513-1.738.771-2.666.771z" fill="#1a3b70"/></g><g><path clip-rule="evenodd" d="m293.719 55.685c-4.746 0-8.594 3.847-8.594 8.593s3.848 8.594 8.594 8.594 8.594-3.848 8.594-8.594c0-4.745-3.848-8.593-8.594-8.593z" fill="#1a3b70" fill-rule="evenodd"/></g><g><path d="m266.123 314.999c-1.279 0-2.56-.488-3.535-1.465l-39.396-39.396c-1.953-1.952-1.953-5.118 0-7.07 1.951-1.953 5.119-1.953 7.07 0l39.396 39.396c1.953 1.952 1.953 5.118 0 7.07-.975.977-2.256 1.465-3.535 1.465zm-8.21-39.984c-1.279 0-2.56-.488-3.535-1.465l-39.396-39.397c-1.953-1.952-1.953-5.118 0-7.07 1.951-1.953 5.119-1.953 7.07 0l39.396 39.397c1.953 1.952 1.953 5.118 0 7.07-.975.977-2.256 1.465-3.535 1.465z" fill="#1a3b70"/></g></g></svg>