<svg id="Layer_1" enable-background="new 0 0 512 512" height="512" viewBox="0 0 512 512" width="512" xmlns="http://www.w3.org/2000/svg"><g><path d="m303.9 146.3c8.1 0 40.6.3 40.9.3h.1c1.6 0 3.1-.6 4.2-1.7s1.8-2.7 1.8-4.3v-55.9c0-3.3-2.7-6-5.9-6-2.3 0-57.3-.5-61.2-.5-8.7 0-18.4 2.8-28.1 8.1-2.9 1.6-4 5.2-2.4 8.1s5.2 4 8.1 2.4c7.8-4.3 15.7-6.6 22.3-6.6 3.1 0 40.3.3 55.1.5v43.9c-9.9-.1-29-.3-35-.3-16.4 0-26.6 14.4-26.6 27.7v45.6c0 3.3 2.7 6 6 6h54.9l-5.7 50.1h-49.9c-3.3 0-6 2.7-6 6v90c0 3.3 2.7 6 6 6s6-2.7 6-6v-84h49.3c3.1 0 5.6-2.3 6-5.3l7-62.1c.2-1.7-.3-3.4-1.5-4.7-1.1-1.3-2.8-2-4.5-2h-55.6v-39.6c.1-7.6 5.7-15.7 14.7-15.7z"/><path d="m282.5 375c-3.3 0-6 2.7-6 6v40.9h-50.5v-151.6c0-3.3-2.7-6-6-6h-46.9v-51.5h47.6c3.3 0 6-2.7 6-6v-59.9c0-7.9 2.4-15.9 7.1-23.8 1.7-2.9.7-6.5-2.1-8.2-2.9-1.7-6.5-.7-8.2 2.1-5.8 9.8-8.7 19.9-8.7 30v53.9h-47.6c-3.3 0-6 2.7-6 6v63.5c0 3.3 2.7 6 6 6h46.8v151.6c0 3.3 2.7 6 6 6h62.5c3.3 0 6-2.7 6-6v-47c0-3.3-2.6-6-6-6z"/><path d="m238.9 112.6c1.6 0 3.2-.6 4.3-1.8 1.4-1.5 2.9-2.9 4.4-4.2 2.5-2.2 2.7-6 .5-8.5s-6-2.7-8.5-.5c-1.8 1.6-3.5 3.2-5.1 4.9-2.3 2.4-2.2 6.2.2 8.5 1.2 1 2.7 1.6 4.2 1.6z"/></g></svg>