<?xml version="1.0" encoding="UTF-8"?>
<svg id="Layer_2" data-name="Layer 2" xmlns="http://www.w3.org/2000/svg" viewBox="0 0 186.42 48.1">
  <defs>
    <style>
      .cls-1 {
        fill: #fff;
      }
    </style>
  </defs>
  <g id="Layer_1-2" data-name="Layer 1">
    <g>
      <g>
        <path class="cls-1" d="M170.32,30.23c-.3-.32,.25-.91,.4-1.14,.22-.34,.84-1.04,1.73-.63,1.57,.73,1.55,.77,2.43,1,.2-.18,.25-.47,.29-.76,.64-.15,9.4,2.26,10.66,2.68,.21,.41-2.07,2.55-2.13,2.71-1.07-.55-3.67-1.8-3.84-1.75,.21,.1,1.03,.54,2.04,1.1-.06,.27-2.22,4.07-2.24,4.1-1.86-1.4-4.18-2.87-4.57-3.17,.42,.31,6.36,4.73,7.14,5.33-.89,.46-3.24,2.61-3.79,2.07-.87-.85-5.58-5.65-6.45-6.81-.25-.34,.38-.95,.57-1.13,.17-.15,.49-.47,.78-.56,.32,.05-2.24-2.35-3.03-3.04h0Z"/>
        <path class="cls-1" d="M183.05,10.29s-8.79,5.98-9,6.16c.2-.38,6.4-6.16,6.42-6.2-1.4-1.29-2.55-2.33-3.71-3.57-.15-.16-.39-.26-.56,0-.37,.6-5.48,9.01-6.21,10.48,.45,.59,1,1.32,1.64,1.78,.6-.13,.92-.89,1.56-.54,.4,.22,.47,.75,.91,.98,2.37-1.33,10.17-3.96,10.99-4.77-.62-1.46-1.09-2.93-2.04-4.33"/>
        <path class="cls-1" d="M147.72,41.35s8.41-6.51,8.61-6.69c-.18,.39-6.01,6.54-6.03,6.58,1.48,1.2,2.69,2.17,3.92,3.34,.16,.15,.41,.23,.55-.04,.33-.62,4.92-9.33,5.56-10.84-.48-.56-1.08-1.26-1.75-1.68-.59,.17-.87,.94-1.52,.63-.41-.2-.52-.72-.96-.92-2.29,1.47-9.91,4.57-10.68,5.43,.71,1.41,1.27,2.85,2.3,4.2"/>
        <path class="cls-1" d="M156.84,3.3s.08-.17,.65-.38c.44-.18,1.24,.29,2.43-.43,1.26-.76,2.31-.78,3.27-.89,.04,0,.13-1.24,.13-1.24,.34,.21,2.17-.16,3.28-.3,.58-.02,1.27-.12,1.91-.01,0,0,.19,1.12-1.15,8.35,.15-.8,1.06-4.72,1.29-5.8,0,0,4.27,.83,5.23,2.43l-4.85,9.14c-.75-.25-1.77-.75-2.65-1.04,.13-.45,.22-1.26,.23-1.32-.79-.12-1.89-.08-2.55,0,0,.04-.63-6.41-.64-6.38-.02,.39,.53,7.02,.54,7.43-2.05,.6-3.08,.62-3.7,.61-.42-.43-3.29-9.72-3.44-10.17Z"/>
        <path class="cls-1" d="M174.22,44.18s-.07,.18-.63,.41c-.43,.2-1.25-.22-2.4,.57-1.22,.82-2.27,.91-3.22,1.07-.03,0-.06,1.25-.06,1.25-.35-.19-2.16,.28-3.26,.49-.58,.05-1.26,.19-1.91,.12,0,0-.25-1.11,.68-8.41-.1,.81-.79,4.77-.96,5.86,0,0-4.31-.59-5.36-2.13l4.33-9.4c.76,.21,1.81,.65,2.71,.89-.11,.45-.15,1.27-.16,1.33,.79,.08,1.88-.03,2.55-.14,0-.04,.99,6.37,.99,6.33,0-.39-.93-6.98-.96-7.39,2.01-.72,3.05-.79,3.66-.82,.44,.41,3.83,9.52,4.01,9.96Z"/>
        <path class="cls-1" d="M144.77,21.95s-.13-.14-.07-.75c.02-.48,.78-1,.64-2.39-.15-1.46,.27-2.43,.57-3.34,.01-.03-1.07-.64-1.07-.64,.33-.22,.77-2.04,1.11-3.11,.23-.53,.43-1.2,.79-1.74,0,0,1.1,.3,7.09,4.56-.66-.47-3.84-2.95-4.72-3.61,0,0,2.55-3.52,4.41-3.73l6.25,8.25c-.54,.57-1.42,1.29-2.06,1.96-.35-.31-1.05-.73-1.1-.77-.44,.66-.87,1.68-1.08,2.31,.03,.02-6.08-2.13-6.05-2.11,.35,.18,6.59,2.48,6.97,2.64-.31,2.12-.74,3.06-1,3.61-.57,.2-10.2-1.12-10.67-1.16Z"/>
        <path class="cls-1" d="M186.31,28.18c.04-1.01-.15-3.26-.62-4.11-.49-.02-2.91-.11-3.21-.09,1.32-.13,2.85-.02,3.93-.52l-2.44-6.04s-9.78,3.58-9.68,4.16c.14,.84,.33,1.75,.68,2.51,2.12-.07,4.5-.13,6.57-.07,0,0-5.73,.36-6.69,.32-.15,0-.23,.31-.23,.31-.15,.45-.29,1.65-.29,1.65,.8,.14,9.93,2.21,11.98,1.88"/>
        <path class="cls-1" d="M142.62,24.4c.09,1.01,.58,3.21,1.16,4,.49-.04,2.9-.27,3.19-.34-1.29,.3-2.83,.4-3.83,1.04l3.22,5.66s9.22-4.84,9.04-5.4c-.25-.81-.56-1.69-1-2.39-2.1,.35-4.44,.72-6.51,.94,0,0,5.63-1.12,6.59-1.2,.15-.01,.19-.34,.19-.34,.09-.47,.06-1.68,.06-1.68-.81-.03-10.14-.87-12.12-.27"/>
      </g>
      <path class="cls-1" d="M54.02,36.36c-.11,.45-.46,.75-.71,.85-.5,.18-1.14,.24-2.03,.24-.38,0-.66-.02-.86-.07-.2-.06-.29-.13-.35-.27-.1-.23-.12-.78-.12-1.64v-1.91h2.35c.24,.01,.64,.07,.64,.63v.1h.27v-1.92h-.27v.1c0,.48-.4,.51-.65,.54h-2.34v-3.66h2.87c.24,.01,.64,.05,.64,.56v.1h.27v-1.36l-.15,.02c-.24,.05-1.2,.11-2.25,.11h-3.03v.27h.1c.15,0,.62,.1,.62,.65v7.37c0,.58-.48,.65-.63,.65h-.1v.27h3.91c.89,0,1.37-.11,1.64-.3h0c.32-.24,.42-.71,.43-1.28v-.1s-.23,0-.23,0l-.02,.08Zm-28.4-7.32h.1c.14,0,.59,.06,.59,.65v3.3h-5.91v-3.3c0-.59,.4-.65,.56-.65h.1v-.27h-2.31v.27h.1c.16,0,.56,.13,.56,.65v7.37c0,.65-.4,.65-.55,.65h-.1v.27h2.28v-.27h-.1c-.48,0-.54-.41-.55-.65v-3.51h5.91v3.5c0,.54-.43,.65-.59,.65h-.1v.27h2.29v-.27h-.1c-.45,0-.54-.39-.55-.65v-7.37c0-.6,.4-.65,.55-.65h.1v-.27h-2.29v.27Zm9.35,7.32c-.11,.45-.46,.75-.71,.85-.51,.18-1.14,.24-2.03,.24-.38,0-.66-.02-.85-.07-.2-.06-.29-.13-.35-.27-.1-.23-.12-.78-.11-1.64v-1.91h2.35c.24,.01,.64,.07,.64,.63v.1h.27v-1.92h-.27v.1c0,.48-.4,.51-.65,.54h-2.33v-3.66h2.87c.24,.01,.64,.05,.64,.56v.1h.26v-1.36l-.15,.02c-.24,.05-1.2,.11-2.25,.11h-3.03v.27h.1c.15,0,.62,.1,.62,.65v7.37c0,.58-.48,.65-.63,.65h-.1v.27h3.91c.89,0,1.37-.11,1.64-.3h0c.31-.24,.42-.71,.43-1.28v-.1s-.23,0-.23,0l-.02,.08Zm1.3-7.32h.1c.16,0,.56,.06,.56,.65v7.37c0,.59-.4,.65-.55,.65h-.1v.27h2.28v-.27h-.1c-.14,0-.55-.06-.55-.65v-7.37c0-.6,.4-.65,.56-.65h.1v-.27h-2.31v.27Zm9.95,7.83c-.46-.62-1.46-2.22-2.12-3.38,.7-.49,1.21-1.34,1.21-2.3,0-.75-.35-1.56-.98-1.99-.64-.43-1.49-.42-2.06-.43h-2.4v.27h.1c.16,0,.56,.11,.56,.65v7.37c0,.59-.4,.65-.55,.65h-.1v.27h2.28v-.27h-.1c-.52,0-.58-.41-.59-.65v-3.15c.29,.01,.64,.02,.87,.02s.57-.04,.9-.07c.51,.93,1.45,2.44,1.81,2.95,.68,.98,1.06,1.16,2.06,1.16h.47v-.27h-.28c-.19,0-.6-.16-1.09-.83Zm-2.83-3.63c-.31,.13-.9,.16-1.25,.15-.22,0-.47-.02-.67-.05v-4.06c.14-.02,.48-.05,.67-.05,.29,0,.59,.03,.86,.11,.99,.28,1.37,1.18,1.37,2.19,0,.83-.39,1.48-.99,1.72Zm15.93-.41c.72-.33,1.24-1.13,1.24-1.98,0-.74-.31-1.28-.79-1.61-.48-.33-1.13-.46-1.81-.46h-2.56s0,.27,0,.27h.1c.16,0,.59,.12,.59,.65v7.37c0,.62-.5,.65-.66,.65h-.1v.27h2.95c.91,0,1.89-.05,2.58-.72h0c.47-.45,.72-1.08,.72-1.8,0-1.34-1.13-2.3-2.27-2.63Zm-2.28-3.5c.16-.04,.5-.09,.71-.09,1.27,0,1.89,.9,1.9,1.93,0,.58-.17,.94-.46,1.17-.29,.23-.73,.34-1.26,.34-.28,0-.61,0-.89-.04v-3.31Zm1.43,8.26c-.45,0-.75-.03-.95-.11-.2-.08-.3-.18-.37-.37-.06-.15-.1-.64-.1-1.29,0-.88,0-1.76,0-2.63,.28-.01,.64-.02,.89-.02,1.55,0,2.62,.98,2.63,2.56,0,1.24-.91,1.85-2.09,1.86Zm-47.38-.14c-.06-.09-.15-.44-.21-1.07l-.89-7.6h-.21l-3.72,7.66-3.97-7.66h-.22l-.85,7.7c-.05,.55-.12,.82-.21,.96-.11,.18-.45,.27-.7,.27h-.1v.26H2.22v-.26h-.11c-.21-.01-.36-.06-.45-.12-.09-.07-.13-.15-.13-.29,0-.25,.04-.61,.07-.91l.59-5.39,3.59,6.99h.19l3.33-6.96,.68,5.69c.03,.27,.04,.45,.04,.65,0,.21-.21,.36-.44,.36h-.1v.27h2.34v-.27h-.09c-.31-.03-.51-.11-.62-.26Zm107.46-8.67h-2.85c-1.05,0-2.01-.06-2.25-.11l-.15-.03v1.36h.27v-.1c0-.15,.1-.55,.63-.55h2.4v7.71c0,.6-.39,.65-.55,.65h-.1v.27h2.29v-.27h-.1c-.16,0-.54-.11-.54-.65v-7.71h2.43c.43,0,.64,.4,.64,.55v.1h.27v-1.36l-.15,.03c-.23,.05-1.2,.11-2.25,.11Zm3.43,.27h.1c.15,0,.56,.06,.56,.65v7.37c0,.59-.4,.65-.55,.65h-.1v.27h2.28v-.27h-.1c-.14,0-.55-.06-.55-.65v-7.37c0-.6,.4-.65,.56-.65h.1v-.27h-2.31v.27Zm13.35,3.5c-.59-.34-1.12-.65-1.5-.97-.38-.32-.6-.65-.6-1.05,0-.52,.21-.86,.54-1.09,.33-.23,.78-.34,1.25-.34,.96,.01,1.51,.36,1.58,1.3v.1h.29v-1.62s-1.18-.28-1.81-.28c-.63,0-1.27,.18-1.75,.55-.48,.37-.8,.93-.8,1.64,0,1.46,1.19,2.12,2.17,2.68,1.03,.6,2.01,1.21,2,2.37,0,1.1-.95,1.78-2.02,1.78-1.11,0-1.86-.63-1.98-1.73v-.09h-.27v.5c0,.49,.04,1.03,.5,1.4,.35,.28,.96,.44,1.52,.44,.76,0,1.49-.24,2.04-.69,.55-.45,.91-1.1,.91-1.91,0-1.54-1.04-2.39-2.08-2.99Zm-4.12,3.82c-.11,.45-.46,.75-.71,.85-.5,.18-1.14,.24-2.03,.24-.38,0-.66-.02-.85-.07-.2-.06-.29-.13-.35-.27-.1-.23-.12-.78-.12-1.64v-1.91h2.35c.24,.01,.64,.07,.64,.63v.1h.27v-1.92h-.27v.1c0,.48-.4,.51-.65,.54h-2.34v-3.66h2.87c.24,.01,.64,.05,.64,.56v.1h.27v-1.36l-.15,.02c-.23,.05-1.2,.11-2.25,.11h-3.03v.27h.1c.15,0,.62,.1,.62,.65v7.37c0,.58-.48,.65-.63,.65h-.1v.27h3.91c.89,0,1.37-.11,1.64-.3h0c.31-.24,.42-.71,.43-1.28v-.1s-.23,0-.23,0l-.02,.08Zm-115.7-3.82c-.59-.34-1.12-.65-1.5-.97-.38-.32-.6-.65-.6-1.05,0-.52,.21-.86,.54-1.09,.33-.23,.78-.34,1.25-.34,.96,.01,1.51,.36,1.57,1.3v.1h.29v-1.62s-1.18-.28-1.81-.28c-.63,0-1.27,.18-1.75,.55-.48,.37-.8,.93-.8,1.64,0,1.46,1.19,2.12,2.17,2.68,1.03,.6,2.01,1.21,2,2.37,0,1.1-.95,1.78-2.02,1.78-1.11,0-1.86-.63-1.98-1.73v-.09h-.27v.5c0,.49,.04,1.03,.5,1.4,.34,.28,.96,.44,1.52,.44,.76,0,1.49-.24,2.04-.69,.55-.45,.91-1.1,.91-1.91,0-1.54-1.04-2.39-2.08-2.99Zm96.68,4.34c-.45-.62-1.46-2.24-2.13-3.4,.71-.49,1.21-1.34,1.21-2.3,0-.75-.35-1.56-.98-1.99-.64-.43-1.49-.42-2.06-.43h-2.4v.27h.1c.16,0,.56,.11,.56,.65v7.37c0,.59-.4,.65-.55,.65h-.1v.27h2.28v-.27h-.1c-.52,0-.58-.41-.59-.65v-3.15c.3,.01,.64,.02,.87,.02s.57-.04,.9-.07c.51,.93,1.44,2.45,1.81,2.97,.68,.98,1.06,1.16,2.06,1.16h.47v-.28h-.27c-.2,0-.61-.15-1.09-.82Zm-2.83-3.64c-.31,.13-.9,.16-1.25,.15-.22,0-.47-.02-.67-.05v-4.06c.14-.02,.48-.05,.67-.05,.29,0,.59,.03,.86,.11,.99,.28,1.37,1.18,1.38,2.19,0,.83-.39,1.48-.99,1.72Zm-29.48,3.64c-.45-.62-1.46-2.24-2.12-3.4,.7-.49,1.21-1.34,1.21-2.3,0-.75-.35-1.56-.97-1.99-.64-.43-1.49-.42-2.06-.43h-2.4v.27h.1c.16,0,.56,.11,.56,.65v7.37c0,.59-.4,.65-.55,.65h-.1v.27h2.28v-.27h-.1c-.52,0-.58-.41-.59-.65v-3.15c.29,.01,.64,.02,.87,.02s.57-.04,.9-.07c.51,.93,1.45,2.45,1.81,2.97,.68,.98,1.05,1.15,2.06,1.15h.47v-.27h-.27c-.19,0-.61-.14-1.1-.82Zm-2.83-3.64c-.31,.13-.9,.16-1.25,.15-.22,0-.47-.02-.67-.05v-4.06c.14-.02,.48-.05,.67-.05,.29,0,.59,.03,.86,.11,.99,.28,1.37,1.18,1.38,2.19,0,.83-.39,1.48-.99,1.72Zm17.41-4.46h-2.05v.27h.1c.16,0,.56,.1,.56,.65v7.37c0,.56-.4,.65-.55,.65h-.1v.27h2.28v-.27h-.1c-.49,0-.54-.41-.55-.65v-3.29h.04c.14,.04,.54,.09,.74,.1,.81,0,1.53-.21,2.05-.64,.52-.43,.83-1.08,.83-1.93,0-.48-.15-.99-.41-1.37-.68-.97-1.7-1.15-2.85-1.15Zm.34,4.81c-.2,0-.54-.05-.66-.07h-.08v-4.29c.11-.01,.32-.02,.41-.02,.82,.01,1.59,.27,2.04,.98,.23,.36,.38,.9,.38,1.39,0,1.15-.88,2.01-2.09,2.01Zm-25.64-4.81h-2.05v.27h.1c.16,0,.56,.1,.56,.65v7.37c0,.56-.41,.65-.55,.65h-.1v.27h2.28v-.27h-.1c-.49,0-.54-.41-.55-.65v-3.29h.04c.14,.04,.54,.09,.74,.1,.81,0,1.54-.21,2.06-.64,.52-.43,.83-1.08,.83-1.93,0-.48-.15-.99-.41-1.37-.68-.97-1.7-1.15-2.85-1.15Zm.34,4.81c-.2,0-.53-.05-.66-.07h-.08v-4.29c.11-.01,.32-.02,.41-.02,.82,.01,1.59,.27,2.04,.98,.23,.36,.38,.9,.38,1.39,0,1.15-.88,2.01-2.09,2.01Zm16.9-4.99c-1.36,0-2.53,.55-3.36,1.43-.83,.88-1.31,2.08-1.31,3.37,0,1.29,.5,2.48,1.34,3.34,.85,.86,2.04,1.4,3.43,1.39,1.36,0,2.54-.56,3.37-1.44,.84-.88,1.33-2.08,1.33-3.38s-.51-2.51-1.36-3.35c-.86-.85-2.06-1.37-3.45-1.37Zm.09,8.94c-1.21,0-2.13-.52-2.76-1.32-.63-.8-.96-1.89-.96-3,0-2.19,1.31-4.05,3.63-4.05,1.21,0,2.14,.53,2.78,1.33,.63,.8,.97,1.89,.97,2.99,0,2.19-1.34,4.05-3.66,4.05Zm17.91-1.18c-.11,.45-.46,.75-.71,.85-.51,.18-1.14,.24-2.03,.24-.38,0-.66-.02-.86-.07-.2-.06-.29-.13-.35-.27-.1-.23-.12-.78-.11-1.64v-1.91h2.35c.24,.01,.64,.07,.64,.63v.1h.27v-1.92h-.27v.1c0,.48-.41,.51-.65,.54h-2.33v-3.66h2.86c.24,.01,.64,.05,.64,.56v.1h.27v-1.36l-.15,.02c-.23,.05-1.2,.11-2.25,.11h-3.03v.27h.1c.15,0,.62,.1,.62,.65v7.37c0,.58-.48,.65-.63,.65h-.1v.27h3.91c.89,0,1.37-.11,1.64-.3h0c.32-.24,.42-.71,.43-1.28v-.1s-.23,0-.23,0l-.02,.08ZM20.42,27.04c4.19,0,4.58-3.94,4.58-7.45v-3.92s-1.24,.75-1.24,1.23v4.18c-.1,3.99-1.56,5.17-4.59,5.89,.71,.06,.98,.08,1.26,.08Zm20.95-13.9c.42,0,.73-.29,.73-.7,0-.43-.31-.75-.73-.75s-.71,.33-.71,.75,.31,.7,.71,.7Zm77.15-.7c0,.41,.31,.7,.73,.7s.71-.29,.71-.7c0-.43-.31-.75-.71-.75-.43,0-.73,.33-.73,.75Zm-.31-1.03c.4,0,.72-.29,.72-.7,0-.43-.31-.75-.72-.75-.42,0-.73,.33-.73,.75s.31,.7,.73,.7ZM6.79,13.14c.41,0,.72-.29,.72-.7,0-.43-.31-.75-.72-.75s-.73,.33-.73,.75,.31,.7,.73,.7Zm110.42,0c.43,0,.73-.29,.73-.7,0-.43-.31-.75-.73-.75-.4,0-.71,.33-.71,.75s.31,.7,.71,.7Zm-34.36,12.99c0,.41,.31,.7,.71,.7,.43,0,.73-.29,.73-.7,0-.43-.31-.75-.73-.75-.4,0-.71,.33-.71,.75Zm-5.99-2.75h11.69c1.56,0,2.44-.96,2.44-2.56v-5.15s-1.24,.75-1.24,1.23v3.88c0,1.23-.47,2.04-1.7,2.04h-11.09c-1-.06-1.53-.71-1.53-1.81v-5.34s-1.24,.75-1.24,1.23v4.03c0,1.81,1.16,2.44,2.68,2.44ZM43.4,13.14c.41,0,.71-.29,.71-.7,0-.43-.31-.75-.71-.75s-.73,.33-.73,.75,.31,.7,.73,.7Zm58.88,13.68c.42,0,.73-.29,.73-.7,0-.43-.31-.75-.73-.75s-.71,.33-.71,.75,.31,.7,.71,.7Zm-34.54-15.48s0,0,0,0c0,0-.9,.55-1.17,1.01-.05,.08-.07,.16-.07,.23v10.83h1.24V11.34Zm36.57,14.04c-.42,0-.73,.33-.73,.75s.31,.7,.73,.7,.72-.29,.72-.7c0-.43-.31-.75-.72-.75ZM4.75,13.14c.42,0,.73-.29,.73-.7,0-.43-.31-.75-.73-.75s-.71,.33-.71,.75,.31,.7,.71,.7Zm123.16,10.24c1.07,0,1.73-.48,2.23-1.12l.06,.08c.58,.79,1.42,1.81,3.16,1.81,2.64,0,3.91-2.08,3.91-3.95s-1.19-4.12-3.41-4.12c-5.35,0-1.92,6.73-7.07,6.73h-.71c-1.5,0-2.39-1.94-2.39-3.23v-3.91s-1.25,.75-1.25,1.23v3.88c0,1.23-.49,2.04-1.8,2.04-1.5,0-2.39-1.94-2.39-3.23v-3.91s-1.24,.75-1.24,1.23v3.88c0,1.23-.49,1.98-1.8,1.98-1.52,0-2.37-1.91-2.37-3.18v-3.91s-1.25,.75-1.25,1.23v3.88c0,1.23-.5,2.03-1.79,2.03h-2.01c-1.5,0-2.39-1.93-2.39-3.22v-3.92s-1.25,.75-1.25,1.23v3.88c0,1.23-.45,2.04-1.72,2.04h-5.59c.17-1.03,.21-2.2,.21-3.27v-3.87s-1.24,.75-1.24,1.23v4.17c-.1,3.99-1.57,5.17-4.59,5.89,.71,.06,.98,.08,1.26,.08,2.69,0,3.82-1.55,4.27-3.65h6.08c1.37,0,2.33-.75,2.56-1.97,.77,1.31,1.48,1.96,2.85,1.96h2.01c1.35,0,2.31-.71,2.58-1.87l.06,.1c.69,1.14,1.43,1.69,2.79,1.69s2.29-.67,2.52-1.89c.71,1.35,1.5,1.97,2.87,1.97s2.33-.75,2.56-1.97c.62,1.23,1.43,1.91,2.7,1.96h1.58Zm5.6-6.85h.08c1.58,.06,2.39,1.85,2.39,3.77s-1.17,3.35-2.54,3.35c-1.6,0-2.51-1.31-2.99-1.85,1.08-2,.83-5.28,3.06-5.28ZM15.31,26.13c0-.43-.31-.75-.73-.75s-.71,.33-.71,.75,.31,.7,.71,.7,.73-.29,.73-.7Zm2.02,0c0-.43-.31-.75-.71-.75s-.73,.33-.73,.75,.31,.7,.73,.7,.71-.29,.71-.7ZM62.44,12.56v8.21c0,1.24-.52,2.04-1.82,2.04h-4.88c-.87,0-1.06-.13-1.41-.48,1.68-.91,3.7-2.08,3.7-4.01,0-2.18-1.66-3.43-3.95-3.43-1.29,0-2.8,.42-4.31,1.29l-.17,.1v.02c.14,.21,1.12,1.29,1.47,2.06,1,2.3,1.75,3.32,2.28,3.89-.44,.38-1.97,.55-2.16,.55h-6.76c-.79,0-1.12-.26-1.36-.43,1.7-.91,3.61-2.1,3.61-4.29,0-1.79-1.58-3.32-3.86-3.32h-.04c-2.2,0-3.94,1.43-3.94,3.26s1.24,3.29,2.91,4.35c-.52,.37-1,.43-1.81,.43h-8.78c-.98-.06-1.52-.72-1.52-1.82V11.33s-1.24,.75-1.24,1.23v8.44c0,1.82,1.12,2.37,2.66,2.37h9.27c.93,0,1.47-.25,1.81-.4l.22-.1,.1,.06c.29,.19,.79,.44,2.24,.44h6.95c1.02,0,1.47-.23,2.08-.52l.06-.04c.33,.17,.6,.56,2.22,.56h5.01c1.58,0,2.66-.89,2.66-2.49V11.33s-1.24,.75-1.24,1.23Zm-19.9,9.52c-1.39-.86-2.47-2.39-2.47-4.05,0-.16,0-.39,.02-.54,.13-1.21,1.04-2.2,2.64-2.22h.04c1.6,0,2.47,1.1,2.47,2.74,0,2.24-.91,2.84-2.31,3.82l-.39,.25Zm8.11-5.52c1.1-.66,2.3-1,3.48-1,1.64,0,2.47,1.1,2.47,2.66,0,1.95-1.06,2.76-2.64,3.76-1.45-1.39-1.89-3.86-3.3-5.42Zm-31.48-.9s-1.24,.75-1.24,1.23v4.02c-.04,1.15-.55,1.87-1.71,1.89h-1.85s-.57,0-.57,0h0s-3.74,0-3.74,0c-1.16-.06-1.25-1.17-1.25-1.73v-6.38h-.43c-.14,.23-.19,.79-.54,.79-.29,0-1.22-1-2.66-1-2.32,0-3.8,2.2-3.8,4.4,0,2.37,1.45,4.5,3.36,4.5,1.22,0,1.95-.5,2.43-1.02,.27-.31,.5-.68,.66-1.04,.29,1.87,1.41,2.07,2.78,2.07h5.94c1.56,0,2.63-.89,2.63-2.49v-5.22Zm-11.78,5.38c-.35,1.1-1.29,1.83-2.39,1.83-.93,0-2.33-.89-2.33-3.86,0-2.1,.81-4.03,2.51-4.03,2.18,0,2.45,1.91,2.45,3.63,0,1.08-.04,1.8-.23,2.43Z"/>
    </g>
  </g>
</svg>