<svg width="233" height="62" viewBox="0 0 233 62" fill="none" xmlns="http://www.w3.org/2000/svg">
<g clip-path="url(#clip0_2376_6)">
<path d="M96.35 52.18H99.88V61.64H101.2V52.18H104.73V50.93H96.35V52.18ZM92.35 59.24L85.76 50.93H84.61V61.64H85.89V53.14L92.63 61.64H93.63V50.93H92.32L92.35 59.24ZM129.59 59.38L126.81 50.9H125.81L123 59.37L120 50.93H118.57L122.45 61.71H123.45L126.22 53.49L129 61.71H130L133.88 50.93H132.51L129.59 59.38ZM111.65 50.75C110.941 50.7513 110.239 50.8923 109.584 51.1649C108.93 51.4375 108.335 51.8363 107.835 52.3387C107.334 52.8411 106.937 53.4371 106.667 54.0927C106.397 54.7484 106.259 55.4509 106.26 56.16C106.26 57.16 106.88 61.68 111.63 61.81C112.354 61.8038 113.069 61.6526 113.734 61.3655C114.398 61.0783 114.998 60.661 115.499 60.1381C115.999 59.6152 116.39 58.9973 116.648 58.3209C116.906 57.6446 117.025 56.9234 117 56.2C117.013 55.4874 116.884 54.7793 116.62 54.1173C116.356 53.4553 115.962 52.8527 115.462 52.345C114.962 51.8373 114.365 51.4347 113.707 51.1608C113.049 50.8869 112.343 50.7472 111.63 50.75M115.63 56.31C115.657 56.8547 115.574 57.3993 115.386 57.9112C115.197 58.4231 114.908 58.8919 114.535 59.2895C114.161 59.6871 113.712 60.0054 113.213 60.2254C112.714 60.4454 112.175 60.5626 111.63 60.57C111.08 60.5625 110.537 60.4446 110.033 60.2233C109.529 60.002 109.075 59.6819 108.697 59.2818C108.32 58.8817 108.026 58.4099 107.834 57.8942C107.642 57.3786 107.556 56.8297 107.58 56.28C107.554 55.7361 107.639 55.1926 107.827 54.6818C108.016 54.1711 108.306 53.7036 108.679 53.307C109.052 52.9105 109.501 52.5931 110 52.3737C110.498 52.1543 111.036 52.0374 111.58 52.03C112.13 52.0362 112.673 52.1528 113.176 52.373C113.68 52.5932 114.134 52.9124 114.512 53.3117C114.89 53.711 115.184 54.1822 115.376 54.6973C115.568 55.2124 115.654 55.7608 115.63 56.31ZM144.18 59.23L137.59 50.93H136.47V61.64H137.75V53.14L144.48 61.64H145.48V50.93H144.2L144.18 59.23ZM196.05 50.86L191.05 61.64H192.45L193.74 58.79H199.37L200.66 61.64H202.1L197.1 50.86H196.05ZM194.32 57.55L196.57 52.64L198.8 57.55H194.32ZM187.32 55.62H181.38V50.93H180.07V61.64H181.38V56.88H187.32V61.64H188.63V50.93H187.32V55.62ZM46.11 50.93H42.46V61.64H46.11C46.8333 61.6805 47.5574 61.5743 48.2386 61.3277C48.9198 61.081 49.5441 60.6991 50.0738 60.2049C50.6035 59.7106 51.0278 59.1143 51.321 58.4519C51.6142 57.7894 51.7703 57.0744 51.78 56.35C51.78 55.35 51.45 51.05 46.11 50.93ZM46.11 60.39H43.77V52.19H46.11C46.6604 52.1533 47.2126 52.2291 47.7327 52.4128C48.2528 52.5966 48.7301 52.8844 49.1353 53.2587C49.5405 53.6331 49.8652 54.086 50.0895 54.59C50.3138 55.094 50.4331 55.6384 50.44 56.19C50.44 56.66 50.44 60.19 46.11 60.35M171.72 50.71C171.01 50.71 170.308 50.8501 169.653 51.1222C168.997 51.3943 168.402 51.7931 167.902 52.2958C167.401 52.7984 167.004 53.3949 166.735 54.0512C166.465 54.7074 166.327 55.4105 166.33 56.12C166.33 57.21 166.95 61.64 171.7 61.77C172.425 61.7651 173.142 61.6149 173.808 61.3285C174.474 61.042 175.076 60.6251 175.579 60.1022C176.081 59.5793 176.474 58.9611 176.733 58.284C176.993 57.6069 177.114 56.8847 177.09 56.16C177.103 55.4474 176.974 54.7393 176.71 54.0773C176.446 53.4153 176.052 52.8127 175.552 52.305C175.052 51.7973 174.455 51.3947 173.797 51.1208C173.139 50.8469 172.433 50.7072 171.72 50.71ZM175.72 56.27C175.747 56.8147 175.664 57.3593 175.476 57.8712C175.287 58.3831 174.998 58.8519 174.625 59.2495C174.251 59.6471 173.802 59.9654 173.303 60.1854C172.804 60.4054 172.265 60.5226 171.72 60.53C171.17 60.5225 170.627 60.4046 170.123 60.1833C169.619 59.962 169.165 59.6419 168.787 59.2418C168.41 58.8417 168.116 58.3699 167.924 57.8542C167.732 57.3386 167.646 56.7897 167.67 56.24C167.644 55.6961 167.729 55.1526 167.917 54.6418C168.106 54.1311 168.396 53.6636 168.769 53.267C169.142 52.8705 169.591 52.5531 170.09 52.3337C170.588 52.1143 171.126 51.9974 171.67 51.99C172.219 51.9975 172.761 52.1151 173.265 52.3358C173.768 52.5565 174.221 52.8757 174.599 53.2747C174.976 53.6737 175.27 54.1444 175.463 54.6588C175.655 55.1733 175.743 55.7211 175.72 56.27ZM158.06 50.89H154.4V61.64H158.06C158.783 61.6805 159.507 61.5743 160.189 61.3277C160.87 61.081 161.494 60.6991 162.024 60.2049C162.554 59.7106 162.978 59.1143 163.271 58.4519C163.564 57.7894 163.72 57.0744 163.73 56.35C163.73 55.35 163.39 51.05 158.06 50.93M158.06 60.39H155.71V52.19H158.06C158.61 52.1533 159.163 52.2291 159.683 52.4128C160.203 52.5966 160.68 52.8844 161.085 53.2587C161.49 53.6331 161.815 54.086 162.039 54.59C162.264 55.094 162.383 55.6384 162.39 56.19C162.39 56.66 162.33 60.19 158.06 60.35M77.66 59.35L74.91 50.9H73.91L71.13 59.37L68.13 50.93H66.73L70.61 61.71H71.61L74.39 53.49L77.16 61.71H78.16L82.05 50.93H80.67L77.66 59.35ZM59.75 50.75C59.04 50.75 58.337 50.89 57.6812 51.162C57.0254 51.434 56.4297 51.8327 55.9281 52.3352C55.4265 52.8377 55.029 53.4341 54.7582 54.0904C54.4874 54.7468 54.3487 55.45 54.35 56.16C54.35 57.16 54.98 61.68 59.72 61.81C60.4455 61.8064 61.1629 61.6572 61.8297 61.3713C62.4965 61.0853 63.0991 60.6684 63.6017 60.1452C64.1044 59.622 64.4969 59.0032 64.756 58.3256C65.0151 57.6479 65.1354 56.9251 65.11 56.2C65.1233 55.4882 64.9944 54.7809 64.7309 54.1196C64.4674 53.4583 64.0745 52.8562 63.5753 52.3486C63.0761 51.841 62.4807 51.4382 61.8238 51.1637C61.1669 50.8892 60.4619 50.7485 59.75 50.75ZM63.75 56.31C63.7783 56.8551 63.6962 57.4002 63.5085 57.9128C63.3209 58.4253 63.0315 58.8946 62.6579 59.2925C62.2843 59.6904 61.8341 60.0087 61.3344 60.2282C60.8347 60.4477 60.2958 60.564 59.75 60.57C59.199 60.5638 58.6549 60.4469 58.15 60.2262C57.6451 60.0055 57.1897 59.6856 56.8109 59.2853C56.4322 58.8851 56.1377 58.4128 55.9452 57.8965C55.7526 57.3802 55.6658 56.8305 55.69 56.28C55.6645 55.7361 55.7486 55.1926 55.9374 54.6818C56.1262 54.1711 56.4158 53.7036 56.789 53.307C57.1622 52.9105 57.6114 52.5931 58.1098 52.3737C58.6081 52.1543 59.1455 52.0374 59.69 52.03C60.2397 52.0362 60.7825 52.1528 61.2862 52.373C61.7899 52.5932 62.2442 52.9124 62.622 53.3117C62.9999 53.711 63.2935 54.1822 63.4856 54.6973C63.6777 55.2124 63.7642 55.7608 63.74 56.31H63.75ZM17.57 29.57L8.19 0H0V39.88H5.57V8.65L15.43 39.88H19.73L29.53 8.68V39.88H35.09V0H26.8L17.57 29.57ZM75.77 0H70.21V39.88H75.77V0ZM127 17.43H112.53V22.56H127V17.43ZM130.5 34.43H110.53V5.43H129.38V0H105V39.88H130.48L130.5 34.43ZM198.75 17.43H184.28V22.56H198.7L198.75 17.43ZM182.28 5.37H201.13V0H176.72V39.88H202.2V34.39H182.28V5.37ZM92.19 17.43H77.77V22.56H92.19V17.43ZM99.75 0H94.19V39.88H99.75V0ZM164 21.76C165.322 21.236 166.521 20.4425 167.52 19.43C168.76 18.1325 169.655 16.5437 170.12 14.81C170.42 13.7286 170.574 12.6122 170.58 11.49V11.14C170.632 9.09165 170.15 7.06505 169.18 5.26C168.571 4.19256 167.755 3.25757 166.78 2.51C165.44 1.54192 163.915 0.861023 162.3 0.51C160.988 0.205534 159.646 0.0512092 158.3 0.05H146.4V39.88H152V5.37H158C158.712 5.3655 159.423 5.40558 160.13 5.49C160.738 5.56559 161.335 5.70984 161.91 5.92C162.822 6.24331 163.611 6.84058 164.17 7.63C164.882 8.75052 165.232 10.0636 165.17 11.39C165.215 12.5791 164.935 13.758 164.36 14.8C164.017 15.3987 163.545 15.9143 162.98 16.31C162.172 16.856 161.259 17.2273 160.3 17.4C159.465 17.553 158.618 17.6266 157.77 17.62H156.48L165.55 39.88H171.55L164 21.76ZM62.12 36C63.1176 34.8301 63.8662 33.469 64.32 32C64.7669 30.5759 64.9962 29.0925 65 27.6C65.0111 26.0822 64.6687 24.5826 64 23.22C63.4198 22.0312 62.5911 20.9809 61.57 20.14C60.0197 18.9063 58.2808 17.9304 56.42 17.25C54.57 16.51 52.67 15.92 50.98 15.25C49.495 14.7659 48.0973 14.0467 46.84 13.12C46.3851 12.7511 46.0078 12.2957 45.73 11.78C45.4622 11.254 45.3283 10.6701 45.34 10.08C45.3329 9.4323 45.4553 8.78971 45.7 8.19C45.925 7.63739 46.2661 7.13952 46.7 6.73C47.8163 5.78933 49.2409 5.2943 50.7 5.34H60.16V0H50.59C47.7129 0.0101471 44.9441 1.0984 42.83 3.05C41.8568 4.00908 41.0889 5.1562 40.5732 6.42151C40.0574 7.68682 39.8046 9.04385 39.83 10.41V10.46C39.8047 11.9277 40.1268 13.3805 40.77 14.7C41.3496 15.8665 42.1793 16.8908 43.2 17.7C44.7561 18.868 46.4831 19.7888 48.32 20.43C50.16 21.14 52.05 21.71 53.72 22.38C55.2197 22.8882 56.6081 23.6791 57.81 24.71C58.3073 25.141 58.7121 25.6682 59 26.26C59.2825 26.92 59.4222 27.6322 59.41 28.35C59.4175 29.1731 59.2717 29.9903 58.98 30.76C58.7093 31.4675 58.2899 32.1086 57.75 32.64C57.164 33.2105 56.4659 33.6532 55.7 33.94C54.7613 34.2487 53.7781 34.4008 52.79 34.39H42.31V39.88H52.31C54.3148 39.9139 56.3065 39.5502 58.17 38.81C59.7045 38.1939 61.0741 37.2283 62.17 35.99M141.2 0H135.64V39.88H141.2V0ZM232.28 28.45C232.302 26.9661 232.023 25.4932 231.46 24.12C230.84 22.6393 229.844 21.3465 228.57 20.37C228.143 20.0433 227.691 19.7492 227.22 19.49L226.96 19.36C227.8 18.854 228.553 18.2158 229.19 17.47C230.088 16.3744 230.734 15.0939 231.08 13.72C231.316 12.8222 231.437 11.8982 231.44 10.97C231.44 10.71 231.44 10.55 231.44 10.52C231.415 8.66556 230.963 6.84178 230.12 5.19C229.135 3.31869 227.54 1.84026 225.6 1C224.151 0.35469 222.586 0.0143 221 0L207.45 0V39.88H219.08C221.58 39.951 224.065 39.4731 226.36 38.48C227.587 37.9133 228.691 37.1115 229.61 36.12C230.678 34.9446 231.453 33.5326 231.87 32C232.15 31.0074 232.295 29.9814 232.3 28.95C232.311 28.7969 232.311 28.6431 232.3 28.49M226 31.72C225.656 32.2931 225.188 32.7818 224.63 33.15C223.809 33.6668 222.89 34.0074 221.93 34.15C221.062 34.2993 220.181 34.3662 219.3 34.35H213V5.35H220.28C220.871 5.35223 221.46 5.40914 222.04 5.52C222.521 5.60752 222.989 5.75885 223.43 5.97C224.157 6.32396 224.758 6.89304 225.15 7.6C225.689 8.64982 225.947 9.82099 225.9 11C225.922 12.0129 225.666 13.0125 225.16 13.89C224.818 14.4341 224.377 14.909 223.86 15.29C223.077 15.8396 222.193 16.2303 221.26 16.44C220.416 16.6472 219.549 16.7513 218.68 16.75H217.82V21.1H218.68C219.463 21.0979 220.244 21.1783 221.01 21.34C222.438 21.5917 223.764 22.2476 224.83 23.23C225.411 23.7984 225.87 24.4788 226.18 25.23C226.557 26.1857 226.753 27.2028 226.76 28.23V28.42C226.802 29.56 226.525 30.6891 225.96 31.68" fill="#210021"/>
</g>
<defs>
<clipPath id="clip0_2376_6">
<rect width="232.3" height="61.81" fill="white"/>
</clipPath>
</defs>
</svg>
