<svg width="350" height="90" viewBox="0 0 350 90" fill="none" xmlns="http://www.w3.org/2000/svg">
<g clip-path="url(#clip0_151_2)">
<path d="M319.773 56.5636C319.21 55.9648 320.242 54.8609 320.524 54.4305C320.937 53.7943 322.101 52.4846 323.772 53.2517C326.72 54.6176 326.682 54.6925 328.334 55.1228C328.71 54.786 328.804 54.2434 328.879 53.7008C330.08 53.4201 346.527 57.9295 348.893 58.7153C349.287 59.4825 345.006 63.4866 344.894 63.786C342.885 62.7569 338.003 60.418 337.684 60.5116C338.078 60.6987 339.618 61.522 341.514 62.5698C341.401 63.075 337.346 70.1852 337.309 70.2413C333.816 67.6218 329.461 64.8713 328.728 64.3099C329.517 64.89 340.669 73.1602 342.134 74.2829C340.463 75.1436 336.051 79.1665 335.018 78.1561C333.385 76.5656 324.542 67.5844 322.908 65.4139C322.439 64.7777 323.622 63.6363 323.978 63.2995C324.298 63.0189 324.898 62.4201 325.443 62.2517C326.044 62.3453 321.237 57.8546 319.754 56.5636H319.773Z" fill="white"/>
<path d="M343.674 19.2527C343.674 19.2527 327.171 30.4419 326.777 30.7786C327.152 30.0676 338.793 19.2527 338.83 19.1778C336.202 16.7641 334.043 14.8181 331.865 12.498C331.583 12.1986 331.133 12.0115 330.813 12.498C330.119 13.6206 320.525 29.3566 319.154 32.1071C319.999 33.2111 321.032 34.577 322.233 35.4377C323.36 35.1944 323.961 33.7724 325.162 34.4273C325.913 34.8389 326.045 35.8306 326.871 36.261C331.32 33.7724 345.965 28.8514 347.504 27.3358C346.34 24.604 345.458 21.8535 343.674 19.2339" fill="white"/>
<path d="M277.342 77.3691C277.342 77.3691 293.131 65.1883 293.507 64.8515C293.169 65.5812 282.223 77.0885 282.186 77.1633C284.964 79.4086 287.236 81.2236 289.545 83.4128C289.846 83.6935 290.315 83.8432 290.578 83.338C291.197 82.1779 299.815 65.8806 301.017 63.0552C300.115 62.0074 298.989 60.6976 297.731 59.9118C296.623 60.2298 296.098 61.6706 294.877 61.0906C294.108 60.7163 293.901 59.7434 293.075 59.3691C288.776 62.1197 274.469 67.9201 273.023 69.5292C274.356 72.1675 275.408 74.8619 277.342 77.3879" fill="white"/>
<path d="M294.465 6.17413C294.465 6.17413 294.615 5.85604 295.686 5.46311C296.512 5.12631 298.014 6.00573 300.248 4.65854C302.614 3.2365 304.585 3.19908 306.387 2.99326C306.462 2.99326 306.631 0.673091 306.631 0.673091C307.27 1.06602 310.705 0.373715 312.789 0.111761C313.878 0.0743386 315.174 -0.112772 316.375 0.0930496C316.375 0.0930496 316.732 2.18868 314.216 15.7168C314.498 14.2199 316.206 6.88515 316.638 4.86436C316.638 4.86436 324.655 6.41738 326.458 9.41114L317.352 26.513C315.944 26.0452 314.029 25.1097 312.376 24.5671C312.621 23.7251 312.789 22.2095 312.808 22.0972C311.325 21.8727 309.26 21.9475 308.021 22.0972C308.021 22.1721 306.838 10.1034 306.819 10.1596C306.782 10.8893 307.814 23.2947 307.833 24.0619C303.984 25.1845 302.05 25.222 300.886 25.2032C300.098 24.3987 294.709 7.01613 294.428 6.17413H294.465Z" fill="white"/>
<path d="M327.096 82.6639C327.096 82.6639 326.964 83.0007 325.913 83.431C325.105 83.8052 323.566 83.0194 321.407 84.4976C319.116 86.0319 317.145 86.2003 315.361 86.4996C315.305 86.4996 315.249 88.8385 315.249 88.8385C314.592 88.483 311.193 89.3624 309.128 89.7554C308.039 89.8489 306.762 90.1109 305.542 89.9799C305.542 89.9799 305.073 87.903 306.819 74.2439C306.631 75.7595 305.336 83.1691 305.016 85.2086C305.016 85.2086 296.924 84.1046 294.953 81.2231L303.083 63.6348C304.509 64.0277 306.481 64.851 308.171 65.3001C307.964 66.142 307.889 67.6763 307.87 67.7886C309.353 67.9383 311.4 67.7325 312.658 67.5267C312.658 67.4518 314.516 79.4456 314.516 79.3707C314.516 78.641 312.77 66.3104 312.714 65.5433C316.488 64.1961 318.44 64.0651 319.586 64.009C320.412 64.7761 326.776 81.8219 327.114 82.6452L327.096 82.6639Z" fill="white"/>
<path d="M271.804 41.0695C271.804 41.0695 271.56 40.8075 271.672 39.6661C271.71 38.768 273.137 37.795 272.874 35.1942C272.592 32.4624 273.381 30.6474 273.944 28.9447C273.963 28.8886 271.935 27.7472 271.935 27.7472C272.555 27.3356 273.381 23.9302 274.019 21.9281C274.451 20.9364 274.826 19.6828 275.502 18.6724C275.502 18.6724 277.568 19.2337 288.814 27.2046C287.575 26.3252 281.604 21.6848 279.952 20.4499C279.952 20.4499 284.74 13.8636 288.232 13.4707L299.966 28.9073C298.952 29.9738 297.3 31.321 296.098 32.5747C295.441 31.9946 294.127 31.2087 294.033 31.1339C293.207 32.3688 292.4 34.2774 292.005 35.4562C292.062 35.4936 280.59 31.4707 280.647 31.5081C281.304 31.8449 293.019 36.1485 293.733 36.4478C293.151 40.4146 292.343 42.1734 291.855 43.2025C290.785 43.5767 272.705 41.1069 271.822 41.032L271.804 41.0695Z" fill="white"/>
<path d="M349.793 52.7268C349.868 50.837 349.512 46.627 348.629 45.0366C347.709 44.9992 343.166 44.8308 342.603 44.8682C345.081 44.6249 347.953 44.8308 349.981 43.8952L345.4 32.5938C345.4 32.5938 327.038 39.2923 327.226 40.3775C327.489 41.9493 327.846 43.652 328.503 45.074C332.483 44.943 336.951 44.8308 340.838 44.943C340.838 44.943 330.08 45.6166 328.277 45.5418C327.996 45.5418 327.846 46.1218 327.846 46.1218C327.564 46.9638 327.301 49.2091 327.301 49.2091C328.803 49.4711 345.945 53.3443 349.793 52.7268Z" fill="white"/>
<path d="M267.767 45.6549C267.936 47.5447 268.856 51.6611 269.945 53.1393C270.865 53.0645 275.389 52.6341 275.934 52.5031C273.512 53.0645 270.621 53.2516 268.743 54.4491L274.789 65.0395C274.789 65.0395 292.099 55.9834 291.761 54.9356C291.292 53.42 290.71 51.7734 289.884 50.4636C285.941 51.1185 281.548 51.8108 277.661 52.2225C277.661 52.2225 288.231 50.1268 290.034 49.9772C290.315 49.9584 290.39 49.341 290.39 49.341C290.559 48.4616 290.503 46.1975 290.503 46.1975C288.982 46.1414 271.465 44.5697 267.748 45.6923" fill="white"/>
<path d="M101.422 68.0319C101.216 68.8739 100.559 69.4352 100.089 69.6223C99.1505 69.9591 97.9489 70.0714 96.278 70.0714C95.5645 70.0714 95.0388 70.0339 94.6633 69.9404C94.2879 69.8281 94.1189 69.6971 94.0062 69.4352C93.8185 69.0048 93.7809 67.9757 93.7809 66.3666V62.7928H98.193C98.6436 62.8115 99.3946 62.9237 99.3946 63.9716V64.1587H99.9015V60.5662H99.3946V60.7533C99.3946 61.6514 98.6436 61.7075 98.1742 61.7637H93.7809V54.9154H99.1693C99.6199 54.9341 100.371 55.009 100.371 55.9632V56.1504H100.878V53.6057L100.596 53.6431C100.146 53.7366 98.3432 53.8489 96.3719 53.8489H90.6831V54.3541H90.8708C91.1525 54.3541 92.0349 54.5412 92.0349 55.5703V69.3603C92.0349 70.4456 91.1337 70.5766 90.8521 70.5766H90.6643V71.0818H98.0053C99.6762 71.0818 100.577 70.8759 101.084 70.5204C101.685 70.0714 101.873 69.1919 101.892 68.1254V67.9383H101.46L101.422 68.088V68.0319ZM48.1018 54.3354H48.2896C48.5524 54.3354 49.3973 54.4477 49.3973 55.5516V61.7262H38.3014V55.5516C38.3014 54.4477 39.0524 54.3354 39.3528 54.3354H39.5405V53.8302H35.2035V54.3354H35.3913C35.6917 54.3354 36.4427 54.5786 36.4427 55.5516V69.3416C36.4427 70.5578 35.6917 70.5578 35.41 70.5578H35.2223V71.063H39.503V70.5578H39.3152C38.414 70.5578 38.3014 69.7907 38.2826 69.3416V62.7741H49.3785V69.3229C49.3785 70.3333 48.5712 70.5391 48.2708 70.5391H48.083V71.0443H52.3825V70.5391H52.1947C51.3499 70.5391 51.1809 69.8094 51.1621 69.3229V55.5329C51.1621 54.4102 51.9131 54.3167 52.1947 54.3167H52.3825V53.8115H48.083V54.3167L48.1018 54.3354ZM65.6563 68.0319C65.4497 68.8739 64.7926 69.4352 64.3233 69.6223C63.3657 69.9591 62.1829 70.0714 60.512 70.0714C59.7985 70.0714 59.2728 70.0339 58.9161 69.9404C58.5406 69.8281 58.3716 69.6971 58.259 69.4352C58.0712 69.0048 58.0337 67.9757 58.0525 66.3666V62.7928H62.4646C62.9151 62.8115 63.6661 62.9237 63.6661 63.9716V64.1587H64.1731V60.5662H63.6661V60.7533C63.6661 61.6514 62.9151 61.7075 62.4458 61.7637H58.0712V54.9154H63.4596C63.9102 54.9341 64.6612 55.009 64.6612 55.9632V56.1504H65.1494V53.6057L64.8677 53.6431C64.4171 53.7366 62.6147 53.8489 60.6434 53.8489H54.9546V54.3541H55.1424C55.424 54.3541 56.3064 54.5412 56.3064 55.5703V69.3603C56.3064 70.4456 55.4052 70.5766 55.1236 70.5766H54.9359V71.0818H62.2768C63.9478 71.0818 64.849 70.8759 65.3559 70.5204C65.9379 70.0714 66.1444 69.1919 66.1632 68.1254V67.9383H65.7314L65.6938 68.088L65.6563 68.0319ZM68.097 54.3354H68.2847C68.5851 54.3354 69.3361 54.4477 69.3361 55.5516V69.3416C69.3361 70.4456 68.5851 70.5578 68.3035 70.5578H68.1158V71.063H72.3964V70.5578H72.2087C71.9458 70.5578 71.1761 70.4456 71.1761 69.3416V55.5516C71.1761 54.4289 71.9271 54.3354 72.2275 54.3354H72.4152V53.8302H68.0782V54.3354H68.097ZM86.7779 68.9861C85.9143 67.826 84.0368 64.8323 82.7977 62.6618C84.1119 61.745 85.0694 60.1545 85.0694 58.3583C85.0694 56.9549 84.4123 55.4393 83.2295 54.6348C82.0279 53.8302 80.432 53.8489 79.3619 53.8302H74.8559V54.3354H75.0437C75.3441 54.3354 76.0951 54.5412 76.0951 55.5516V69.3416C76.0951 70.4456 75.3441 70.5578 75.0624 70.5578H74.8747V71.063H79.1554V70.5578H78.9676C77.9913 70.5578 77.8787 69.7907 77.8599 69.3416V63.4477C78.4044 63.4664 79.0615 63.4851 79.4933 63.4851C79.9251 63.4851 80.5635 63.4102 81.183 63.3541C82.1406 65.0942 83.9054 67.9196 84.5813 68.8739C85.858 70.7075 86.5714 71.0443 88.4489 71.0443H89.3313V70.5391H88.8056C88.4489 70.5391 87.6791 70.2398 86.7592 68.9861H86.7779ZM81.4647 62.194C80.8826 62.4373 79.7749 62.4934 79.1178 62.4747C78.7048 62.4747 78.2354 62.4373 77.8599 62.3811V54.7845C78.1227 54.747 78.7611 54.6909 79.1178 54.6909C79.6623 54.6909 80.2255 54.747 80.7324 54.8967C82.5911 55.4206 83.3046 57.1046 83.3046 58.9944C83.3046 60.5474 82.5724 61.7637 81.4459 62.2127L81.4647 62.194ZM111.373 61.4269C112.725 60.8094 113.701 59.3125 113.701 57.7221C113.701 56.3375 113.119 55.3271 112.218 54.7096C111.317 54.0921 110.096 53.8489 108.82 53.8489H104.013V54.3541H104.201C104.501 54.3541 105.309 54.5786 105.309 55.5703V69.3603C105.309 70.5204 104.37 70.5766 104.07 70.5766H103.882V71.0818H109.42C111.129 71.0818 112.969 70.9882 114.264 69.7346C115.147 68.8926 115.616 67.7138 115.616 66.3666C115.616 63.8593 113.494 62.063 111.354 61.4456L111.373 61.4269ZM107.092 54.878C107.393 54.8032 108.031 54.7096 108.425 54.7096C110.81 54.7096 111.974 56.3936 111.993 58.3208C111.993 59.4061 111.673 60.0797 111.129 60.51C110.584 60.9404 109.758 61.1462 108.763 61.1462C108.238 61.1462 107.618 61.1462 107.092 61.0714V54.878ZM109.777 70.3333C108.932 70.3333 108.369 70.2772 107.993 70.1275C107.618 69.9778 107.43 69.7907 107.299 69.4352C107.186 69.1545 107.111 68.2377 107.111 67.0215C107.111 65.3749 107.111 63.7283 107.111 62.1005C107.637 62.0817 108.313 62.063 108.782 62.063C111.692 62.063 113.701 63.8967 113.72 66.8531C113.72 69.1732 112.011 70.3146 109.796 70.3333H109.777ZM20.822 70.0714C20.7094 69.903 20.5404 69.2481 20.4277 68.0693L18.7568 53.8489H18.3625L11.3783 68.1815L3.92469 53.8489H3.51165L1.91579 68.2564C1.82191 69.2855 1.69049 69.7907 1.52152 70.0526C1.31499 70.3894 0.67665 70.5578 0.207279 70.5578H0.0195312V71.0443H4.16876V70.5578H3.96224C3.56797 70.5391 3.28635 70.4456 3.11737 70.3333C2.9484 70.2023 2.8733 70.0526 2.8733 69.7907C2.8733 69.3229 2.9484 68.6493 3.00473 68.088L4.11244 58.0028L10.8526 71.0818H11.2093L17.4613 58.0589L18.738 68.7055C18.7943 69.2107 18.8131 69.5474 18.8131 69.9217C18.8131 70.3146 18.4188 70.5953 17.987 70.5953H17.7993V71.1005H22.1926V70.5953H22.0236C21.4416 70.5391 21.0661 70.3894 20.8596 70.1088L20.822 70.0714ZM222.576 53.8489H217.225C215.254 53.8489 213.452 53.7366 213.001 53.6431L212.719 53.5869V56.1316H213.226V55.9445C213.226 55.6639 213.414 54.9154 214.409 54.9154H218.915V69.3416C218.915 70.4643 218.183 70.5578 217.882 70.5578H217.695V71.063H221.994V70.5578H221.806C221.506 70.5578 220.793 70.352 220.793 69.3416V54.9154H225.355C226.162 54.9154 226.556 55.6639 226.556 55.9445V56.1316H227.063V53.5869L226.782 53.6431C226.35 53.7366 224.529 53.8489 222.557 53.8489H222.576ZM229.016 54.3541H229.204C229.485 54.3541 230.255 54.4664 230.255 55.5703V69.3603C230.255 70.4643 229.504 70.5766 229.222 70.5766H229.035V71.0818H233.315V70.5766H233.128C232.865 70.5766 232.095 70.4643 232.095 69.3603V55.5703C232.095 54.4477 232.846 54.3541 233.146 54.3541H233.334V53.8489H228.997V54.3541H229.016ZM254.08 60.903C252.973 60.2668 251.977 59.6867 251.264 59.088C250.551 58.4892 250.138 57.8718 250.138 57.1233C250.138 56.1504 250.532 55.5142 251.151 55.0838C251.771 54.6535 252.616 54.4477 253.498 54.4477C255.301 54.4664 256.333 55.1212 256.465 56.8801V57.0672H257.009V54.036C257.009 54.036 254.794 53.5121 253.611 53.5121C252.428 53.5121 251.227 53.8489 250.325 54.5412C249.424 55.2335 248.823 56.2813 248.823 57.6098C248.823 60.3416 251.058 61.5766 252.897 62.6244C254.831 63.747 256.671 64.8884 256.652 67.0589C256.652 69.1171 254.869 70.3894 252.86 70.3894C250.776 70.3894 249.368 69.2106 249.142 67.1524V66.984H248.636V67.9196C248.636 68.8364 248.711 69.8468 249.574 70.5391C250.231 71.063 251.377 71.3624 252.428 71.3624C253.855 71.3624 255.226 70.9134 256.258 70.0714C257.291 69.2294 257.967 68.0131 257.967 66.4976C257.967 63.6161 256.014 62.0256 254.062 60.903H254.08ZM246.345 68.0506C246.139 68.8926 245.481 69.4539 245.012 69.641C244.073 69.9778 242.872 70.0901 241.201 70.0901C240.487 70.0901 239.962 70.0526 239.605 69.9591C239.229 69.8468 239.06 69.7158 238.948 69.4539C238.76 69.0235 238.722 67.9944 238.722 66.3853V62.8115H243.135C243.585 62.8302 244.336 62.9425 244.336 63.9903V64.1774H244.843V60.5849H244.336V60.772C244.336 61.6701 243.585 61.7262 243.116 61.7824H238.722V54.9341H244.111C244.561 54.9529 245.312 55.0277 245.312 55.982V56.1691H245.819V53.6244L245.538 53.6618C245.106 53.7553 243.285 53.8676 241.313 53.8676H235.625V54.3728H235.812C236.094 54.3728 236.976 54.5599 236.976 55.589V69.3791C236.976 70.4643 236.075 70.5953 235.794 70.5953H235.606V71.1005H242.947C244.618 71.1005 245.519 70.8946 246.026 70.5391C246.608 70.0901 246.814 69.2106 246.833 68.1441V67.957H246.401L246.364 68.1067L246.345 68.0506ZM29.1205 60.903C28.0128 60.2668 27.0177 59.6867 26.3043 59.088C25.5908 58.4892 25.1778 57.8718 25.1778 57.1233C25.1778 56.1504 25.572 55.5142 26.1916 55.0838C26.8112 54.6535 27.6561 54.4477 28.5385 54.4477C30.3408 54.4664 31.3735 55.1212 31.4861 56.8801V57.0672H32.0306V54.036C32.0306 54.036 29.8152 53.5121 28.6323 53.5121C27.4495 53.5121 26.2479 53.8489 25.3467 54.5412C24.4456 55.2335 23.8448 56.2813 23.8448 57.6098C23.8448 60.3416 26.079 61.5766 27.9189 62.6244C29.8527 63.747 31.6926 64.8884 31.6739 67.0589C31.6739 69.1171 29.8903 70.3894 27.8813 70.3894C25.7973 70.3894 24.3892 69.2106 24.1639 67.1524V66.984H23.657V67.9196C23.657 68.8364 23.7321 69.8468 24.5958 70.5391C25.2341 71.063 26.3981 71.3624 27.4495 71.3624C28.8764 71.3624 30.247 70.9134 31.2796 70.0714C32.3122 69.2294 32.9881 68.0131 32.9881 66.4976C32.9881 63.6161 31.0355 62.0256 29.0829 60.903H29.1205ZM210.635 69.0235C209.79 67.8635 207.894 64.8323 206.636 62.6618C207.969 61.745 208.908 60.1545 208.908 58.3583C208.908 56.9549 208.251 55.4393 207.068 54.6348C205.867 53.8302 204.271 53.8489 203.201 53.8302H198.695V54.3354H198.882C199.183 54.3354 199.934 54.5412 199.934 55.5516V69.3416C199.934 70.4456 199.183 70.5578 198.901 70.5578H198.713V71.063H202.994V70.5578H202.806C201.83 70.5578 201.717 69.7907 201.699 69.3416V63.4477C202.262 63.4664 202.9 63.4851 203.332 63.4851C203.764 63.4851 204.402 63.4102 205.022 63.3541C205.979 65.0942 207.725 67.9383 208.42 68.9113C209.697 70.745 210.41 71.0818 212.288 71.0818H213.17V70.5578H212.663C212.288 70.5578 211.518 70.2772 210.617 69.0235H210.635ZM205.322 62.2127C204.74 62.456 203.632 62.5121 202.975 62.4934C202.562 62.4934 202.093 62.456 201.717 62.3998V54.8032C201.98 54.7657 202.619 54.7096 202.975 54.7096C203.52 54.7096 204.083 54.7657 204.59 54.9154C206.449 55.4393 207.162 57.1233 207.181 59.0131C207.181 60.5662 206.449 61.7824 205.322 62.2314V62.2127ZM149.974 69.0235C149.129 67.8635 147.233 64.8323 145.994 62.6618C147.308 61.745 148.265 60.1545 148.265 58.3583C148.265 56.9549 147.608 55.4393 146.444 54.6348C145.243 53.8302 143.647 53.8489 142.577 53.8302H138.071V54.3354H138.258C138.559 54.3354 139.31 54.5412 139.31 55.5516V69.3416C139.31 70.4456 138.559 70.5578 138.277 70.5578H138.089V71.063H142.37V70.5578H142.182C141.206 70.5578 141.093 69.7907 141.075 69.3416V63.4477C141.619 63.4664 142.276 63.4851 142.708 63.4851C143.14 63.4851 143.778 63.4102 144.398 63.3541C145.355 65.0942 147.12 67.9383 147.796 68.9113C149.073 70.745 149.767 71.063 151.664 71.063H152.546V70.5578H152.039C151.682 70.5578 150.894 70.2959 149.974 69.0235ZM144.661 62.2127C144.079 62.456 142.971 62.5121 142.314 62.4934C141.901 62.4934 141.431 62.456 141.056 62.3998V54.8032C141.319 54.7657 141.957 54.7096 142.314 54.7096C142.858 54.7096 143.422 54.7657 143.928 54.9154C145.787 55.4393 146.501 57.1233 146.519 59.0131C146.519 60.5662 145.787 61.7824 144.661 62.2314V62.2127ZM177.348 53.8676H173.499V54.3728H173.687C173.987 54.3728 174.738 54.5599 174.738 55.589V69.3791C174.738 70.4269 173.987 70.5953 173.705 70.5953H173.518V71.1005H177.798V70.5953H177.61C176.69 70.5953 176.597 69.8281 176.578 69.3791V63.2231H176.653C176.916 63.298 177.667 63.3915 178.042 63.4102C179.563 63.4102 180.915 63.0173 181.891 62.2127C182.867 61.4082 183.449 60.1919 183.449 58.6015C183.449 57.7034 183.168 56.7491 182.68 56.0381C181.403 54.2231 179.488 53.8863 177.329 53.8863L177.348 53.8676ZM177.986 62.8676C177.61 62.8676 176.972 62.7741 176.747 62.7366H176.597V54.7096C176.803 54.6909 177.197 54.6722 177.366 54.6722C178.906 54.6909 180.352 55.1774 181.196 56.5059C181.628 57.1795 181.91 58.1899 181.91 59.1067C181.91 61.2585 180.258 62.8676 177.986 62.8676ZM129.847 53.8676H125.999V54.3728H126.186C126.487 54.3728 127.238 54.5599 127.238 55.589V69.3791C127.238 70.4269 126.468 70.5953 126.205 70.5953H126.017V71.1005H130.298V70.5953H130.11C129.19 70.5953 129.096 69.8281 129.078 69.3791V63.2231H129.153C129.416 63.298 130.167 63.3915 130.542 63.4102C132.063 63.4102 133.433 63.0173 134.41 62.2127C135.386 61.4082 135.968 60.1919 135.968 58.6015C135.968 57.7034 135.686 56.7491 135.198 56.0381C133.921 54.2231 132.006 53.8863 129.847 53.8863V53.8676ZM130.486 62.8676C130.11 62.8676 129.491 62.7741 129.247 62.7366H129.096V54.7096C129.303 54.6909 129.697 54.6722 129.866 54.6722C131.406 54.6909 132.851 55.1774 133.696 56.5059C134.128 57.1795 134.41 58.1899 134.41 59.1067C134.41 61.2585 132.757 62.8676 130.486 62.8676ZM162.215 53.5308C159.662 53.5308 157.465 54.5599 155.907 56.2065C154.348 57.8531 153.447 60.0984 153.447 62.5121C153.447 64.9258 154.386 67.1524 155.963 68.7616C157.559 70.3707 159.793 71.3811 162.403 71.3624C164.956 71.3624 167.172 70.3146 168.73 68.668C170.307 67.0215 171.227 64.7761 171.227 62.3437C171.227 59.9113 170.269 57.6472 168.674 56.0755C167.059 54.4851 164.806 53.5121 162.196 53.5121L162.215 53.5308ZM162.384 70.2585C160.112 70.2585 158.385 69.2855 157.202 67.7886C156.019 66.2917 155.4 64.2522 155.4 62.1753C155.4 58.0776 157.859 54.5973 162.215 54.5973C164.487 54.5973 166.233 55.589 167.435 57.0859C168.617 58.5828 169.256 60.6223 169.256 62.6805C169.256 66.7782 166.74 70.2585 162.384 70.2585ZM196.01 68.0506C195.803 68.8926 195.146 69.4539 194.677 69.641C193.719 69.9778 192.536 70.0901 190.865 70.0901C190.152 70.0901 189.626 70.0526 189.251 69.9591C188.875 69.8468 188.706 69.7158 188.594 69.4539C188.406 69.0235 188.368 67.9944 188.387 66.3853V62.8115H192.799C193.25 62.8302 194.001 62.9425 194.001 63.9903V64.1774H194.508V60.5849H194.001V60.772C194.001 61.6701 193.231 61.7262 192.781 61.7824H188.406V54.9341H193.776C194.226 54.9529 194.977 55.0277 194.977 55.982V56.1691H195.484V53.6244L195.202 53.6618C194.771 53.7553 192.949 53.8676 190.978 53.8676H185.289V54.3728H185.477C185.759 54.3728 186.641 54.5599 186.641 55.589V69.3791C186.641 70.4643 185.74 70.5953 185.458 70.5953H185.271V71.1005H192.612C194.282 71.1005 195.184 70.8946 195.691 70.5391C196.291 70.0901 196.479 69.2106 196.498 68.1441V67.957H196.066L196.029 68.1067L196.01 68.0506ZM38.3389 50.5932C46.2056 50.5932 46.9378 43.221 46.9378 36.6535V29.3188C46.9378 29.3188 44.6097 30.7221 44.6097 31.6202V39.4414C44.422 46.9071 41.6808 49.115 35.9921 50.4622C37.3251 50.5745 37.832 50.6119 38.3577 50.6119L38.3389 50.5932ZM77.6721 24.5849C78.4607 24.5849 79.0427 24.0422 79.0427 23.2751C79.0427 22.4705 78.4607 21.8718 77.6721 21.8718C76.8836 21.8718 76.3391 22.4892 76.3391 23.2751C76.3391 24.061 76.9212 24.5849 77.6721 24.5849ZM222.52 23.2751C222.52 24.0422 223.102 24.5849 223.89 24.5849C224.679 24.5849 225.223 24.0422 225.223 23.2751C225.223 22.4705 224.641 21.8718 223.89 21.8718C223.083 21.8718 222.52 22.4892 222.52 23.2751ZM221.938 21.3479C222.689 21.3479 223.29 20.8052 223.29 20.0381C223.29 19.2335 222.708 18.6348 221.938 18.6348C221.149 18.6348 220.567 19.2522 220.567 20.0381C220.567 20.824 221.149 21.3479 221.938 21.3479ZM12.7489 24.5849C13.5186 24.5849 14.1006 24.0422 14.1006 23.2751C14.1006 22.4705 13.5186 21.8718 12.7489 21.8718C11.9791 21.8718 11.3783 22.4892 11.3783 23.2751C11.3783 24.061 11.9603 24.5849 12.7489 24.5849ZM220.06 24.5849C220.868 24.5849 221.431 24.0422 221.431 23.2751C221.431 22.4705 220.849 21.8718 220.06 21.8718C219.309 21.8718 218.727 22.4892 218.727 23.2751C218.727 24.061 219.309 24.5849 220.06 24.5849ZM155.55 48.8905C155.55 49.6576 156.132 50.2003 156.883 50.2003C157.69 50.2003 158.254 49.6576 158.254 48.8905C158.254 48.0859 157.672 47.4872 156.883 47.4872C156.132 47.4872 155.55 48.1046 155.55 48.8905ZM144.304 43.745H166.252C169.181 43.745 170.833 41.9487 170.833 38.9549V29.3188C170.833 29.3188 168.505 30.7221 168.505 31.6202V38.8801C168.505 41.1815 167.622 42.6971 165.313 42.6971H144.492C142.614 42.5849 141.619 41.3687 141.619 39.3104V29.3188C141.619 29.3188 139.291 30.7221 139.291 31.6202V39.1608C139.291 42.5474 141.469 43.7262 144.323 43.7262L144.304 43.745ZM81.4834 24.5849C82.2532 24.5849 82.8164 24.0422 82.8164 23.2751C82.8164 22.4705 82.2344 21.8718 81.4834 21.8718C80.7324 21.8718 80.1129 22.4892 80.1129 23.2751C80.1129 24.061 80.6949 24.5849 81.4834 24.5849ZM192.03 50.1815C192.818 50.1815 193.4 49.6389 193.4 48.8718C193.4 48.0672 192.818 47.4684 192.03 47.4684C191.241 47.4684 190.696 48.0859 190.696 48.8718C190.696 49.6576 191.279 50.1815 192.03 50.1815ZM127.181 21.2169C127.181 21.2169 125.492 22.246 124.985 23.1067C124.891 23.2564 124.853 23.4061 124.853 23.5371V43.8011H127.181V21.2169ZM195.841 47.4872C195.052 47.4872 194.47 48.1046 194.47 48.8905C194.47 49.6763 195.052 50.2003 195.841 50.2003C196.629 50.2003 197.193 49.6576 197.193 48.8905C197.193 48.0859 196.611 47.4872 195.841 47.4872ZM8.91879 24.5849C9.70733 24.5849 10.2894 24.0422 10.2894 23.2751C10.2894 22.4705 9.70733 21.8718 8.91879 21.8718C8.13025 21.8718 7.58578 22.4892 7.58578 23.2751C7.58578 24.061 8.1678 24.5849 8.91879 24.5849ZM240.149 43.745C242.158 43.745 243.397 42.8468 244.336 41.6493L244.449 41.799C245.538 43.2772 247.115 45.1857 250.382 45.1857C255.338 45.1857 257.723 41.2938 257.723 37.7948C257.723 34.2959 255.488 30.0859 251.32 30.0859C241.276 30.0859 247.716 42.6784 238.047 42.6784H236.714C233.897 42.6784 232.226 39.0485 232.226 36.6348V29.3188C232.226 29.3188 229.88 30.7221 229.88 31.6202V38.8801C229.88 41.1815 228.96 42.6971 226.5 42.6971C223.684 42.6971 222.013 39.0672 222.013 36.6535V29.3375C222.013 29.3375 219.685 30.7408 219.685 31.6389V38.8988C219.685 41.2003 218.765 42.6036 216.305 42.6036C213.452 42.6036 211.856 39.0298 211.856 36.6535V29.3375C211.856 29.3375 209.509 30.7408 209.509 31.6389V38.8988C209.509 41.2003 208.57 42.6971 206.148 42.6971H202.374C199.558 42.6971 197.887 39.0859 197.887 36.6722V29.3375C197.887 29.3375 195.54 30.7408 195.54 31.6389V38.8988C195.54 41.2003 194.696 42.7158 192.311 42.7158H181.816C182.135 40.7886 182.21 38.5994 182.21 36.5973V29.3562C182.21 29.3562 179.882 30.7595 179.882 31.6576V39.4601C179.694 46.9258 176.935 49.1337 171.265 50.4809C172.598 50.5932 173.105 50.6306 173.63 50.6306C178.681 50.6306 180.802 47.7304 181.647 43.8011H193.062C195.634 43.8011 197.437 42.3978 197.868 40.115C199.314 42.5662 200.647 43.7824 203.219 43.7824H206.993C209.528 43.7824 211.33 42.4539 211.837 40.2834L211.95 40.4705C213.245 42.6036 214.634 43.6327 217.188 43.6327C219.741 43.6327 221.487 42.379 221.919 40.0963C223.252 42.6223 224.735 43.7824 227.307 43.7824C229.88 43.7824 231.682 42.379 232.114 40.0963C233.278 42.3978 234.799 43.6701 237.183 43.7637H240.149V43.745ZM250.663 30.9279H250.813C253.78 31.0402 255.301 34.3894 255.301 37.982C255.301 41.5745 253.104 44.2501 250.532 44.2501C247.528 44.2501 245.819 41.799 244.918 40.7886C246.946 37.0464 246.476 30.9092 250.663 30.9092V30.9279ZM28.745 48.8905C28.745 48.0859 28.163 47.4872 27.3744 47.4872C26.5859 47.4872 26.0414 48.1046 26.0414 48.8905C26.0414 49.6763 26.6234 50.2003 27.3744 50.2003C28.1254 50.2003 28.745 49.6576 28.745 48.8905ZM32.5375 48.8905C32.5375 48.0859 31.9555 47.4872 31.2045 47.4872C30.4535 47.4872 29.8339 48.1046 29.8339 48.8905C29.8339 49.6763 30.4159 50.2003 31.2045 50.2003C31.993 50.2003 32.5375 49.6576 32.5375 48.8905ZM117.231 23.4996V38.8614C117.231 41.1815 116.254 42.6784 113.814 42.6784H104.652C103.018 42.6784 102.661 42.4352 102.004 41.7803C105.158 40.0776 108.951 37.8884 108.951 34.2772C108.951 30.1982 105.834 27.8593 101.535 27.8593C99.113 27.8593 96.278 28.6452 93.443 30.273L93.1238 30.4601V30.4975C93.3867 30.8905 95.2266 32.9113 95.8837 34.352C97.7612 38.6556 99.1693 40.5641 100.164 41.6306C99.3383 42.3416 96.4657 42.6597 96.109 42.6597H83.4172C81.934 42.6597 81.3145 42.1732 80.8639 41.8551C84.0556 40.1524 87.6416 37.9258 87.6416 33.8281C87.6416 30.4788 84.6752 27.6161 80.3945 27.6161H80.3194C76.1889 27.6161 72.9221 30.2917 72.9221 33.7158C72.9221 37.14 75.2502 39.8718 78.3856 41.8551C77.4093 42.5474 76.5081 42.6597 74.9873 42.6597H58.5031C56.6631 42.5474 55.6493 41.3125 55.6493 39.2543V21.1982C55.6493 21.1982 53.3212 22.6015 53.3212 23.4996V39.2917C53.3212 42.6971 55.424 43.7262 58.3153 43.7262H75.7196C77.4656 43.7262 78.4795 43.2585 79.1178 42.9778L79.5309 42.7907L79.7186 42.903C80.2631 43.2585 81.2018 43.7262 83.9242 43.7262H96.9727C98.8877 43.7262 99.7325 43.2959 100.878 42.7533L100.99 42.6784C101.61 42.9965 102.117 43.7262 105.158 43.7262H114.565C117.531 43.7262 119.559 42.061 119.559 39.0672V21.1982C119.559 21.1982 117.231 22.6015 117.231 23.4996ZM79.8688 41.3125C77.2591 39.7034 75.2314 36.8406 75.2314 33.7346C75.2314 33.4352 75.2314 33.0048 75.269 32.7242C75.513 30.4601 77.2216 28.6077 80.2255 28.5703H80.3006C83.3046 28.5703 84.938 30.6285 84.938 33.6971C84.938 37.8884 83.2295 39.0111 80.601 40.8447L79.8688 41.3125ZM95.0952 30.984C97.1604 29.7491 99.4134 29.1129 101.629 29.1129C104.708 29.1129 106.266 31.1711 106.266 34.0901C106.266 37.7387 104.276 39.2543 101.31 41.1254C98.5873 38.5246 97.7612 33.903 95.1139 30.984H95.0952ZM35.9921 29.3C35.9921 29.3 33.664 30.7034 33.664 31.6015V39.1233C33.5889 41.2751 32.6314 42.6223 30.4535 42.6597H26.9802H25.91H18.8882C16.7103 42.5474 16.5414 40.4705 16.5414 39.4227V27.4851H15.734C15.4712 27.9154 15.3773 28.9632 14.7202 28.9632C14.1757 28.9632 12.4297 27.0921 9.72611 27.0921C5.37035 27.0921 2.59168 31.2086 2.59168 35.325C2.59168 39.7595 5.31403 43.745 8.90002 43.745C11.1905 43.745 12.5611 42.8094 13.4623 41.8364C13.9692 41.2564 14.401 40.5641 14.7014 39.8905C15.2459 43.3894 17.3487 43.7637 19.9208 43.7637H31.0731C34.0019 43.7637 36.0108 42.0984 36.0108 39.1046V29.3375L35.9921 29.3ZM13.8753 39.3666C13.2182 41.4248 11.4534 42.7907 9.38816 42.7907C7.6421 42.7907 5.01363 41.1254 5.01363 35.5682C5.01363 31.6389 6.53439 28.0277 9.72611 28.0277C13.819 28.0277 14.3259 31.6015 14.3259 34.8198C14.3259 36.8406 14.2508 38.1878 13.8941 39.3666H13.8753Z" fill="white"/>
</g>
<defs>
<clipPath id="clip0_151_2">
<rect width="350" height="90" fill="white"/>
</clipPath>
</defs>
</svg>
