<?xml version="1.0" encoding="UTF-8"?>
<svg id="Layer_2" data-name="Layer 2" xmlns="http://www.w3.org/2000/svg" viewBox="0 0 129.91 34.57">
  <defs>
    <style>
      .cls-1 {
        fill: #fff;
      }
    </style>
  </defs>
  <g id="Layer_1-2" data-name="Layer 1">
    <path class="cls-1" d="M53.88,29.18h1.98v5.29h.73v-5.29h1.98v-.7h-4.69v.7Zm-2.25,3.95l-3.69-4.65h-.63v5.99h.72v-4.75l3.76,4.75h.55v-5.99h-.72v4.65Zm20.83,.08l-1.56-4.74h-.55l-1.55,4.74-1.67-4.72h-.8l2.17,6.03h.56l1.55-4.6,1.55,4.6h.56l2.17-6.03h-.77l-1.67,4.72Zm-10.03-4.82h0c-1.78,0-2.98,1.43-3.02,3.02,0,.58,.35,3.09,3,3.16,1.86,.05,3.09-1.66,3.02-3.14-.01-1.61-1.2-3.04-3-3.05m2.25,3.11c0,1.33-.94,2.38-2.25,2.38-1.31,0-2.26-1.07-2.27-2.4v-.02c0-1.33,.94-2.38,2.25-2.38,1.31,0,2.26,1.07,2.27,2.4h0Zm15.97,1.65l-3.68-4.65h-.63v5.99h.72v-4.75l3.76,4.75h.55v-5.99h-.72v4.65Zm29.01-4.69l-2.79,6.03h.78l.72-1.59h3.15l.72,1.59h.81l-2.79-6.03h-.6Zm-.96,3.75l1.26-2.75,1.25,2.75h-2.5Zm-3.92-1.08h-3.32v-2.63h-.73v5.99h.73v-2.66h3.32v2.66h.73v-5.99h-.73v2.63Zm-78.97-2.63h-2.04v5.99h2.04c1.85,0,3.15-1.29,3.17-2.96,0-.53-.19-2.96-3.17-3.03m0,5.29h-1.31v-4.59h1.31c1.49,0,2.4,1.01,2.42,2.26,0,.26-.03,2.25-2.42,2.32m70.25-5.39h0c-1.78,0-2.98,1.43-3.02,3.02,0,.61,.35,3.09,3,3.16,1.86,.05,3.09-1.66,3.02-3.14-.01-1.61-1.2-3.04-3-3.05m2.25,3.11c0,1.33-.94,2.38-2.25,2.38-1.31,0-2.26-1.07-2.27-2.4v-.02c0-1.33,.94-2.38,2.25-2.38,1.31,0,2.26,1.07,2.27,2.4h0Zm-9.88-2.99h-2.04v5.99h2.04c1.85,0,3.15-1.29,3.17-2.96,0-.53-.19-2.96-3.17-3.03m0,5.29h-1.31v-4.59h1.31c1.49,0,2.4,1.01,2.42,2.26,0,.26-.03,2.25-2.42,2.32m-44.96-.56l-1.55-4.74h-.55l-1.55,4.74-1.67-4.72h-.8l2.17,6.03h.56l1.55-4.6,1.55,4.6h.56l2.17-6.03h-.77l-1.67,4.72Zm-10.03-4.82h0c-1.78,0-2.98,1.43-3.02,3.02,0,.56,.35,3.09,3,3.16,1.85,.05,3.09-1.66,3.02-3.14-.01-1.61-1.2-3.04-3-3.05m2.25,3.11c0,1.33-.94,2.38-2.25,2.38-1.31,0-2.26-1.07-2.27-2.4v-.02c0-1.33,.94-2.38,2.25-2.38,1.31,0,2.26,1.07,2.27,2.4h0ZM9.83,16.53L4.58,0H0V22.3H3.11V4.84l5.51,17.46h2.4L16.52,4.85V22.3h3.11V0h-4.64l-5.16,16.53ZM42.38,0h-3.11V22.3h3.11V0Zm28.62,9.75h-8.06v2.87h8.06v-2.87Zm1.96,9.49h-11.14V3h10.54V0h-13.65V22.3h14.25v-3.07Zm38.17-9.49h-8.06v2.87h8.06v-2.87Zm-9.18-6.74h10.54V0h-13.65V22.3h14.25v-3.07h-11.14V3Zm-50.38,6.74h-8.06v2.87h8.06v-2.87ZM55.79,0h-3.11V22.3h3.11V0Zm35.95,12.17c.82-.34,1.47-.79,1.97-1.3,.8-.81,1.22-1.76,1.45-2.59,.23-.82,.26-1.52,.26-1.85,0-.11,0-.18,0-.19,0-1.36-.3-2.44-.78-3.29-.36-.64-.82-1.14-1.34-1.53-.77-.59-1.66-.94-2.51-1.15-.85-.2-1.65-.26-2.26-.26h-6.65V22.3h3.11V3h3.34c.33,0,.75,.01,1.19,.07,.33,.04,.67,.12,1,.24,.49,.19,.93,.48,1.26,.96,.33,.48,.55,1.15,.55,2.1,0,.82-.17,1.44-.45,1.91-.21,.35-.47,.63-.77,.84-.45,.32-.98,.51-1.5,.61-.52,.1-1.02,.12-1.41,.12h0s-.06,0-.12,0c-.14,0-.36,0-.36,0h-.24s5.07,12.45,5.07,12.45h3.36l-4.15-10.13Zm-56.99,7.96c.57-.66,.97-1.41,1.23-2.21,.26-.8,.37-1.64,.37-2.48,0,0,0-.01,0-.02h0c0-.94-.19-1.74-.52-2.43-.33-.69-.8-1.26-1.36-1.73-.83-.7-1.84-1.2-2.88-1.62-1.04-.41-2.1-.74-3.04-1.1h0s0,0,0,0c-.94-.35-1.77-.73-2.32-1.19-.28-.23-.48-.47-.62-.75-.14-.27-.21-.58-.22-.95,0-.39,.07-.74,.2-1.06,.13-.31,.32-.58,.57-.82,.5-.46,1.25-.76,2.25-.77h5.29V0h-5.4c-1.76,.06-3.27,.67-4.34,1.7-1.06,1.03-1.67,2.47-1.67,4.12v.03c0,.92,.19,1.7,.52,2.37,.33,.67,.81,1.22,1.36,1.66,.83,.67,1.84,1.14,2.86,1.53,1.03,.39,2.08,.72,3.02,1.09h0c.93,.37,1.75,.78,2.29,1.3,.27,.26,.49,.55,.63,.88,.15,.33,.23,.71,.23,1.17,0,.49-.08,.94-.24,1.34-.16,.4-.39,.76-.69,1.06-.3,.3-.68,.55-1.14,.72-.46,.18-1,.24-1.63,.25h-5.84v3.07h5.58c1.27,0,2.36-.22,3.27-.6,.91-.38,1.65-.92,2.22-1.58M78.97,0h-3.11V22.3h3.11V0Zm50.94,15.91c0-.96-.18-1.76-.46-2.42-.42-.99-1.05-1.66-1.62-2.1-.28-.22-.55-.38-.76-.49-.05-.03-.1-.05-.14-.07,.51-.31,.92-.67,1.25-1.06,.57-.68,.89-1.44,1.06-2.1,.17-.66,.2-1.22,.2-1.54,0-.14,0-.23,0-.25-.04-1.22-.32-2.2-.73-2.98-.63-1.18-1.57-1.91-2.52-2.33-.95-.43-1.91-.56-2.59-.56,0,0,0,0-.01,0,0,0,0,0-.01,0h-7.54V22.3h6.5c1.72,0,3.05-.3,4.07-.78,.77-.36,1.36-.82,1.82-1.32,.69-.75,1.06-1.59,1.26-2.32,.2-.73,.24-1.36,.24-1.7,0-.14,0-.23,0-.26m-3.54,1.83c-.2,.34-.47,.6-.77,.8-.45,.31-.98,.48-1.51,.58-.53,.1-1.05,.11-1.47,.11h-3.5V3h4.07c.29,0,.63,.02,.98,.09,.26,.05,.53,.13,.78,.25,.37,.19,.71,.47,.96,.91,.25,.44,.41,1.06,.41,1.9,0,.67-.16,1.2-.41,1.62-.19,.32-.44,.57-.73,.78-.43,.31-.94,.52-1.45,.65-.51,.13-1.02,.17-1.45,.17h-.48v2.43h.48c.36,0,.81,.03,1.3,.13,.73,.15,1.53,.46,2.14,1.06,.31,.3,.57,.67,.76,1.13,.19,.46,.31,1.01,.32,1.68,0,.04,0,.07,0,.1,0,.78-.17,1.37-.44,1.82"/>
  </g>
</svg>