<svg xmlns="http://www.w3.org/2000/svg" width="70.563" height="70.564" viewBox="0 0 70.563 70.564"><g transform="translate(-24.457 -24.453)"><path d="M267.624,95.017H233.35a1.008,1.008,0,0,1-1.008-1.008V25.461a1.008,1.008,0,0,1,1.266-.975l34.274,9.072a1.008,1.008,0,0,1,.75.975V94.009A1.008,1.008,0,0,1,267.624,95.017ZM234.358,93h32.258V35.31l-32.258-8.538Z" transform="translate(-190.748 0)"/><path d="M666.257,319.43H649.12a1.008,1.008,0,0,1-1.008-1.008V270.036a1.008,1.008,0,0,1,1.008-1.008h17.137a1.008,1.008,0,0,1,1.008,1.008v48.387A1.008,1.008,0,0,1,666.257,319.43Zm-16.129-2.016h15.121v-46.37H650.128Z" transform="translate(-572.244 -224.413)"/><path d="M25.465,452.025a1.008,1.008,0,0,1-1.008-1.008v-2.933a1.008,1.008,0,1,1,2.016,0v2.933A1.008,1.008,0,0,1,25.465,452.025Z" transform="translate(0 -387.783)"/><path d="M42.6,207.226H25.465a1.008,1.008,0,0,1-1.008-1.008V192.548a1.008,1.008,0,1,1,2.016,0v12.661H41.594V148.758H26.473v16.693a1.008,1.008,0,1,1-2.016,0v-17.7a1.008,1.008,0,0,1,1.008-1.008H42.6a1.008,1.008,0,0,1,1.008,1.008v58.467A1.008,1.008,0,0,1,42.6,207.226Z" transform="translate(0 -112.208)"/><path d="M25.465,573.27a1.008,1.008,0,0,1-1.008-1.008v-2.994a1.008,1.008,0,1,1,2.016,0v2.994A1.008,1.008,0,0,1,25.465,573.27Z" transform="translate(0 -498.978)"/><path d="M124.882,243.807h-9.745a1.008,1.008,0,0,1-1.008-1.008v-5.377a1.008,1.008,0,0,1,1.008-1.008h9.745a1.008,1.008,0,0,1,1.008,1.008V242.8A1.008,1.008,0,0,1,124.882,243.807Zm-8.737-2.016h7.729V238.43h-7.729Z" transform="translate(-82.28 -194.488)"/><path d="M124.882,398.7h-9.745a1.008,1.008,0,0,1-1.008-1.008v-5.376a1.008,1.008,0,0,1,1.008-1.008h9.745a1.008,1.008,0,0,1,1.008,1.008V397.7A1.008,1.008,0,0,1,124.882,398.7Zm-8.737-2.016h7.729v-3.36h-7.729Z" transform="translate(-82.28 -336.618)"/><path d="M124.882,553.6h-9.745a1.008,1.008,0,0,1-1.008-1.008V547.22a1.008,1.008,0,0,1,1.008-1.008h9.745a1.008,1.008,0,0,1,1.008,1.008V552.6A1.008,1.008,0,0,1,124.882,553.6Zm-8.737-2.016h7.729v-3.36h-7.729Z" transform="translate(-82.28 -478.748)"/><path d="M124.882,708.491h-9.745a1.008,1.008,0,0,1-1.008-1.008v-5.377a1.008,1.008,0,0,1,1.008-1.008h9.745a1.008,1.008,0,0,1,1.008,1.008v5.377A1.008,1.008,0,0,1,124.882,708.491Zm-8.737-2.016h7.729v-3.361h-7.729Z" transform="translate(-82.28 -620.866)"/><path d="M501.49,223.529h-5.985a1.008,1.008,0,0,1-1.008-1.008v-5.985a1.008,1.008,0,0,1,1.008-1.008h5.985a1.008,1.008,0,0,1,1.008,1.008v5.985A1.008,1.008,0,0,1,501.49,223.529Zm-4.977-2.016h3.969v-3.969h-3.969Z" transform="translate(-431.293 -175.324)"/><path d="M320.349,223.529h-5.985a1.008,1.008,0,0,1-1.008-1.008v-5.985a1.008,1.008,0,0,1,1.008-1.008h5.985a1.008,1.008,0,0,1,1.008,1.008v5.985A1.008,1.008,0,0,1,320.349,223.529Zm-4.977-2.016h3.969v-3.969h-3.969Z" transform="translate(-265.084 -175.324)"/><path d="M501.49,375.237h-5.985a1.008,1.008,0,0,1-1.008-1.008v-5.986a1.008,1.008,0,0,1,1.008-1.008h5.985a1.008,1.008,0,0,1,1.008,1.008v5.986A1.008,1.008,0,0,1,501.49,375.237Zm-4.977-2.016h3.969v-3.97h-3.969Z" transform="translate(-431.293 -314.525)"/><path d="M320.349,375.237h-5.985a1.008,1.008,0,0,1-1.008-1.008v-5.986a1.008,1.008,0,0,1,1.008-1.008h5.985a1.008,1.008,0,0,1,1.008,1.008v5.986A1.008,1.008,0,0,1,320.349,375.237Zm-4.977-2.016h3.969v-3.97h-3.969Z" transform="translate(-265.084 -314.525)"/><path d="M501.49,526.955h-5.985a1.008,1.008,0,0,1-1.008-1.008v-5.985a1.008,1.008,0,0,1,1.008-1.008h5.985a1.008,1.008,0,0,1,1.008,1.008v5.985A1.008,1.008,0,0,1,501.49,526.955Zm-4.977-2.016h3.969V520.97h-3.969Z" transform="translate(-431.293 -453.737)" fill="#ffa64c"/><path d="M320.349,526.955h-5.985a1.008,1.008,0,0,1-1.008-1.008v-5.985a1.008,1.008,0,0,1,1.008-1.008h5.985a1.008,1.008,0,0,1,1.008,1.008v5.985A1.008,1.008,0,0,1,320.349,526.955Zm-4.977-2.016h3.969V520.97h-3.969Z" transform="translate(-265.084 -453.737)" fill="#ffa64c"/><path d="M501.49,678.662h-5.985a1.008,1.008,0,0,1-1.008-1.008v-5.985a1.008,1.008,0,0,1,1.008-1.008h5.985a1.008,1.008,0,0,1,1.008,1.008v5.985A1.008,1.008,0,0,1,501.49,678.662Zm-4.977-2.016h3.969v-3.969h-3.969Z" transform="translate(-431.293 -592.938)" fill="#ffa64c"/><path d="M320.349,678.662h-5.985a1.008,1.008,0,0,1-1.008-1.008v-5.985a1.008,1.008,0,0,1,1.008-1.008h5.985a1.008,1.008,0,0,1,1.008,1.008v5.985A1.008,1.008,0,0,1,320.349,678.662Zm-4.977-2.016h3.969v-3.969h-3.969Z" transform="translate(-265.084 -592.938)" fill="#ffa64c"/><path d="M711.784,357.275h-8.149a1.008,1.008,0,0,1-1.008-1.008v-4.7a1.008,1.008,0,0,1,1.008-1.008h8.149a1.008,1.008,0,0,1,1.008,1.008v4.7A1.008,1.008,0,0,1,711.784,357.275Zm-7.141-2.016h6.133v-2.687h-6.133Z" transform="translate(-622.265 -299.22)"/><path d="M711.784,479.56h-8.149a1.008,1.008,0,0,1-1.008-1.008v-4.7a1.008,1.008,0,0,1,1.008-1.008h8.149a1.008,1.008,0,0,1,1.008,1.008v4.7A1.008,1.008,0,0,1,711.784,479.56Zm-7.141-2.016h6.133v-2.687h-6.133Z" transform="translate(-622.265 -411.425)"/><path d="M711.784,601.845h-8.149a1.008,1.008,0,0,1-1.008-1.008v-4.7a1.008,1.008,0,0,1,1.008-1.008h8.149a1.008,1.008,0,0,1,1.008,1.008v4.7A1.008,1.008,0,0,1,711.784,601.845Zm-7.141-2.016h6.133v-2.687h-6.133Z" transform="translate(-622.265 -523.63)"/><path d="M711.784,724.131h-8.149a1.008,1.008,0,0,1-1.008-1.008v-4.7a1.008,1.008,0,0,1,1.008-1.008h8.149a1.008,1.008,0,0,1,1.008,1.008v4.7A1.008,1.008,0,0,1,711.784,724.131Zm-7.141-2.016h6.133v-2.687h-6.133Z" transform="translate(-622.265 -635.834)"/></g></svg>