<svg xmlns="http://www.w3.org/2000/svg" width="580" height="500" viewBox="0 0 578.082 498.58"><g transform="translate(-258 -1105)"><path d="M258.069,304.38c-20.64,0-38.867-.574-55.721-1.755a464.319,464.319,0,0,1-56.649-7.177c-9.54-1.859-18.728-4.051-27.309-6.518a250.38,250.38,0,0,1-25.9-8.948,196.3,196.3,0,0,1-23.953-11.738A159.109,159.109,0,0,1,47.079,253.36a108.829,108.829,0,0,1-17.073-15.194,102.831,102.831,0,0,1-12.594-17.225,112.338,112.338,0,0,1-8.706-18.869A137.519,137.519,0,0,1,3.3,181.946C-1.976,154.41-.015,124.674,2.89,96.64c0-4.912.953-10.854,2.912-18.165C7.527,72.041,9.77,65.461,11.938,59.1c1.856-5.447,3.609-10.59,4.877-15.179A184.919,184.919,0,0,1,35.327,0c-1.279,4.994-2.973,10.515-4.767,16.361-4.356,14.2-9.293,30.287-9.293,42.83-5.986,64.15-7.909,136.16,45.38,178.789,56.731,52.173,150.835,58.207,216.683,58.207A256.544,256.544,0,0,0,364.3,283.149,273.355,273.355,0,0,1,258.069,304.38Z" transform="translate(258 1299.2)" fill="#ffb703"/><path d="M18,401.408v0a302.365,302.365,0,0,0,56.407-44.224c48.947-48.536,73.765-100.569,73.765-154.654,0-24.556-6.955-48.818-21.889-76.356C110.269,96.633,88,69.589,58.2,43.495,37.5,25.366,18.459,11.139,0,0A176.142,176.142,0,0,1,28.8,10.292,215.134,215.134,0,0,1,55.444,24.925,284.662,284.662,0,0,1,80.237,42.877c7.491,6.022,15.1,12.646,23.257,20.25,5.8,5.405,11.332,10.942,16.445,16.457,5.3,5.718,10.323,11.6,14.926,17.48,4.755,6.074,9.216,12.342,13.259,18.629,4.163,6.474,8.013,13.171,11.444,19.905a180.593,180.593,0,0,1,12.806,31.545,134.014,134.014,0,0,1,3.826,17.184,121.014,121.014,0,0,1,1.394,18.2c0,47.408-20.44,93.018-60.751,135.563A252.608,252.608,0,0,1,71.707,376a222.4,222.4,0,0,1-25.838,14.521A207.36,207.36,0,0,1,18,401.408Z" transform="translate(658.487 1155.861)" fill="#ffb703"/><path d="M0,136.2H0A190.812,190.812,0,0,1,73.468,37.475,206.328,206.328,0,0,1,131.361,9.8,236.63,236.63,0,0,1,199.709,0c32.34,0,63,9.107,93.723,27.843a211.016,211.016,0,0,0-68.486-11.448C126.984,16.395,42.892,61.18,0,136.2Z" transform="translate(316.384 1105)" fill="#ff8d5c"/></g></svg>