<svg xmlns="http://www.w3.org/2000/svg" xmlns:xlink="http://www.w3.org/1999/xlink" width="97.009" height="110.81" viewBox="0 0 97.009 110.81"><defs><linearGradient id="a" x1="0.45" y1="0.203" x2="2.563" y2="3.508" gradientUnits="objectBoundingBox"><stop offset="0" stop-color="#925d21"/><stop offset="0.118" stop-color="#ba8135"/><stop offset="0.289" stop-color="#fabc54"/><stop offset="0.511" stop-color="#c48429"/><stop offset="0.632" stop-color="#ac6a15"/><stop offset="0.694" stop-color="#af6e19"/><stop offset="0.762" stop-color="#b87c25"/><stop offset="0.832" stop-color="#c6913a"/><stop offset="0.905" stop-color="#dab056"/><stop offset="0.978" stop-color="#f4d77b"/><stop offset="1" stop-color="#fde487"/></linearGradient><linearGradient id="b" x1="-3.415" y1="-0.183" x2="17.109" y2="3.399" xlink:href="#a"/><linearGradient id="c" x1="-0.485" y1="-0.519" x2="2.847" y2="2.928" xlink:href="#a"/><linearGradient id="d" x1="-1.295" y1="-0.952" x2="2.85" y2="2.411" xlink:href="#a"/><linearGradient id="e" x1="-1.975" y1="-1.492" x2="2.823" y2="2.091" xlink:href="#a"/><linearGradient id="f" x1="-1.641" y1="-1.621" x2="1.439" y2="1.84" xlink:href="#a"/><linearGradient id="g" x1="-3.126" y1="-2.249" x2="1.373" y2="1.334" xlink:href="#a"/><linearGradient id="h" x1="17.012" y1="4.668" x2="-2.965" y2="-0.422" xlink:href="#a"/><linearGradient id="i" x1="12.034" y1="4.331" x2="-3.289" y2="-0.758" xlink:href="#a"/><linearGradient id="j" x1="12.815" y1="4.015" x2="-5.432" y2="-1.193" xlink:href="#a"/><linearGradient id="k" x1="14.288" y1="3.595" x2="-8.414" y2="-1.5" xlink:href="#a"/><linearGradient id="l" x1="15.028" y1="3.458" x2="-11.257" y2="-1.965" xlink:href="#a"/><linearGradient id="m" x1="12.678" y1="3.234" x2="-11.974" y2="-2.188" xlink:href="#a"/><linearGradient id="n" x1="9.802" y1="2.739" x2="-11.568" y2="-2.518" xlink:href="#a"/><linearGradient id="o" x1="7.864" y1="2.337" x2="-12.113" y2="-2.752" xlink:href="#a"/><linearGradient id="p" x1="8.622" y1="2.136" x2="-17.663" y2="-3.286" xlink:href="#a"/><linearGradient id="q" x1="30.34" y1="1.94" x2="-82.029" y2="-3.482" xlink:href="#a"/><linearGradient id="r" x1="3.695" y1="1.561" x2="-11.628" y2="-3.528" xlink:href="#a"/><linearGradient id="s" x1="2.883" y1="1.181" x2="-15.364" y2="-4.027" xlink:href="#a"/><linearGradient id="t" x1="-0.921" y1="-0.061" x2="2.248" y2="1.005" gradientUnits="objectBoundingBox"><stop offset="0" stop-color="#b37224"/><stop offset="0.294" stop-color="#cea471" stop-opacity="0.686"/><stop offset="0.605" stop-color="#e8d5bd" stop-opacity="0.357"/><stop offset="0.828" stop-color="#f9f3ed" stop-opacity="0.118"/><stop offset="0.939" stop-color="#fff" stop-opacity="0"/></linearGradient><linearGradient id="u" x1="-0.89" y1="-0.026" x2="2.322" y2="1.004" xlink:href="#t"/><linearGradient id="v" x1="-0.78" y1="0.01" x2="2.315" y2="1.003" xlink:href="#t"/><linearGradient id="w" x1="-0.666" y1="0.043" x2="2.321" y2="1.005" xlink:href="#t"/><linearGradient id="x" x1="-0.577" y1="0.074" x2="2.309" y2="1.002" xlink:href="#t"/><linearGradient id="y" x1="-2.896" y1="0.03" x2="4.339" y2="0.968" xlink:href="#t"/><linearGradient id="z" x1="-2.98" y1="0.009" x2="4.255" y2="0.966" xlink:href="#t"/><linearGradient id="aa" x1="-3.131" y1="-0.012" x2="4.228" y2="0.963" xlink:href="#t"/><linearGradient id="ab" x1="-3.291" y1="-0.034" x2="4.198" y2="0.961" xlink:href="#t"/><linearGradient id="ac" x1="-3.487" y1="-0.057" x2="4.205" y2="0.959" xlink:href="#t"/><linearGradient id="ad" x1="-0.003" y1="0.501" x2="0.998" y2="0.501" gradientUnits="objectBoundingBox"><stop offset="0.168" stop-color="#b9a25f"/><stop offset="0.261" stop-color="#bca565" stop-opacity="0.875"/><stop offset="0.387" stop-color="#c3af76" stop-opacity="0.706"/><stop offset="0.53" stop-color="#cfc092" stop-opacity="0.514"/><stop offset="0.687" stop-color="#e0d6b9" stop-opacity="0.306"/><stop offset="0.853" stop-color="#f6f3ea" stop-opacity="0.086"/><stop offset="0.916" stop-color="#fff" stop-opacity="0"/></linearGradient><linearGradient id="ae" x1="-3.546" y1="0.001" x2="5.051" y2="0.999" xlink:href="#t"/><linearGradient id="af" x1="-3.438" y1="0.009" x2="4.73" y2="0.966" xlink:href="#t"/><linearGradient id="ag" x1="-3.54" y1="-0.012" x2="4.631" y2="0.963" xlink:href="#t"/><linearGradient id="ah" x1="-3.753" y1="-0.034" x2="4.639" y2="0.961" xlink:href="#t"/><linearGradient id="ai" x1="-3.978" y1="-0.057" x2="4.648" y2="0.959" xlink:href="#t"/><linearGradient id="aj" x1="-3.325" y1="0.03" x2="4.764" y2="0.968" xlink:href="#t"/><linearGradient id="ak" x1="-3.471" y1="0.009" x2="4.705" y2="0.966" xlink:href="#t"/><linearGradient id="al" x1="-3.575" y1="-0.012" x2="4.603" y2="0.963" xlink:href="#t"/><linearGradient id="am" x1="-3.783" y1="-0.034" x2="4.616" y2="0.961" xlink:href="#t"/><linearGradient id="an" x1="-4.012" y1="-0.057" x2="4.621" y2="0.959" xlink:href="#t"/><linearGradient id="ao" x1="0.485" y1="-0.015" x2="0.545" y2="1.04" xlink:href="#ad"/><linearGradient id="ap" x1="0.492" y1="0.032" x2="0.505" y2="1.569" xlink:href="#a"/></defs><g transform="translate(-379.94 -362.87)"><g transform="translate(396.068 456.481)"><path d="M434.384,594.962l-4.4,10.767-2.852-7.4-2.873,7.4-4.4-10.767h1.665l2.739,7.006,2.873-7.4,2.852,7.4,2.9-7.006Z" transform="translate(-419.86 -594.57)" fill="url(#a)"/><path d="M461.375,595.54v10.294H459.88V595.54Z" transform="translate(-443.711 -595.148)" fill="url(#b)"/><path d="M479.027,595.242v10.5l-7.713-7.224v7.022H469.82v-10.5l7.713,7.208v-7.006Z" transform="translate(-449.635 -594.85)" fill="url(#c)"/><path d="M504.114,596.193l-1.244,1.026a3.129,3.129,0,0,0-.59-.715,1.656,1.656,0,0,0-1.123-.4,1.528,1.528,0,0,0-1.131.4,1.2,1.2,0,0,0-.376.877,1.152,1.152,0,0,0,.477.933,8.751,8.751,0,0,0,1.652.808,11.657,11.657,0,0,1,1.8.877,2.7,2.7,0,0,1,1.281,2.331,3.117,3.117,0,0,1-1.034,2.4,3.748,3.748,0,0,1-2.63.9,3.61,3.61,0,0,1-2.691-1.071,4.43,4.43,0,0,1-1.046-1.838l1.681-.408a2.942,2.942,0,0,0,.671,1.289,2,2,0,0,0,1.471.59,2.016,2.016,0,0,0,1.382-.477,1.51,1.51,0,0,0,.549-1.2,1.381,1.381,0,0,0-.477-1.095,6.518,6.518,0,0,0-1.539-.82,15.293,15.293,0,0,1-1.871-.889,2.46,2.46,0,0,1-1.321-2.149,2.687,2.687,0,0,1,.881-2.044,3.211,3.211,0,0,1,2.3-.852A3.516,3.516,0,0,1,504.114,596.193Z" transform="translate(-466.108 -594.629)" fill="url(#d)"/><path d="M522.507,596.883v8.957h-1.495v-8.957H518.56V595.55h6.4v1.333Z" transform="translate(-478.683 -595.154)" fill="url(#e)"/><path d="M539.453,594.65,544.5,605.3h-1.778l-1.139-2.541h-4.238l-1.115,2.541H534.54Zm1.531,6.779-1.531-3.559-1.515,3.559Z" transform="translate(-488.207 -594.618)" fill="url(#f)"/><path d="M570.08,605.834H568.2l-2.957-4.428h-.489v4.428H563.26V595.54h1.495a11.858,11.858,0,0,1,2.246.137,2.718,2.718,0,0,1,1.7,1.087,2.874,2.874,0,0,1,.513,1.713,2.751,2.751,0,0,1-.949,2.194,3.124,3.124,0,0,1-1.273.618Zm-5.325-5.761h.416a4.859,4.859,0,0,0,1.628-.174,1.321,1.321,0,0,0,.7-.626,1.559,1.559,0,0,0,.174-.739,1.634,1.634,0,0,0-.521-1.281,2.181,2.181,0,0,0-1.446-.376h-.949v3.2Z" transform="translate(-505.324 -595.148)" fill="url(#g)"/></g><g transform="translate(405.995 470.121)"><path d="M447.157,631.01v.6a1.745,1.745,0,0,1-.966.283,1.788,1.788,0,0,1-.727-.158,1.655,1.655,0,0,1-.776-.683,1.777,1.777,0,0,1-.259-.937,1.75,1.75,0,0,1,.259-.937,1.694,1.694,0,0,1,.776-.683,1.788,1.788,0,0,1,.727-.158,1.712,1.712,0,0,1,.966.283v.6a1.29,1.29,0,0,0-.958-.416,1.176,1.176,0,0,0-.8.3,1.378,1.378,0,0,0,0,2.012,1.176,1.176,0,0,0,.8.3A1.318,1.318,0,0,0,447.157,631.01Z" transform="translate(-444.43 -628.336)" fill="url(#h)"/><path d="M456.16,628.33a1.746,1.746,0,0,1,.812.2,1.663,1.663,0,0,1,.739.76,1.831,1.831,0,0,1,0,1.64,1.664,1.664,0,0,1-.739.76,1.77,1.77,0,0,1-.832.2,1.751,1.751,0,0,1-1.79-1.778,1.758,1.758,0,0,1,.222-.877,1.7,1.7,0,0,1,.865-.764A1.86,1.86,0,0,1,456.16,628.33Zm-.032.469a1.2,1.2,0,0,0-.521.113,1.17,1.17,0,0,0-.416.327,1.313,1.313,0,0,0-.307.869,1.3,1.3,0,0,0,.38.949,1.183,1.183,0,0,0,.881.364,1.133,1.133,0,0,0,.933-.444,1.35,1.35,0,0,0,.3-.869,1.3,1.3,0,0,0-.368-.945A1.176,1.176,0,0,0,456.128,628.8Z" transform="translate(-450.342 -628.33)" fill="url(#i)"/><path d="M469.686,628.519v3.406l-2.5-2.343v2.275H466.7V628.45l2.5,2.339v-2.271Z" transform="translate(-457.702 -628.401)" fill="url(#j)"/><path d="M479.693,628.833l-.4.331a1.026,1.026,0,0,0-.19-.23.548.548,0,0,0-.364-.129.509.509,0,0,0-.368.129.392.392,0,0,0-.121.283.386.386,0,0,0,.154.3,3.053,3.053,0,0,0,.537.263,4.235,4.235,0,0,1,.586.283.876.876,0,0,1,.416.755,1.009,1.009,0,0,1-.335.776,1.221,1.221,0,0,1-.852.295,1.172,1.172,0,0,1-.873-.347,1.4,1.4,0,0,1-.339-.6l.545-.133a.955.955,0,0,0,.218.42.652.652,0,0,0,.477.19.663.663,0,0,0,.448-.154.5.5,0,0,0,.178-.388.455.455,0,0,0-.154-.356,2.215,2.215,0,0,0-.5-.267,5.045,5.045,0,0,1-.606-.287.792.792,0,0,1-.428-.695.874.874,0,0,1,.287-.663,1.035,1.035,0,0,1,.747-.275A1.134,1.134,0,0,1,479.693,628.833Z" transform="translate(-464.163 -628.336)" fill="url(#k)"/><path d="M487.511,629.052v2.9h-.485v-2.9h-.8v-.432H488.3v.432Z" transform="translate(-469.342 -628.503)" fill="url(#l)"/><path d="M496.8,631.957h-.61l-.957-1.434h-.158v1.434h-.485V628.62h.485a4,4,0,0,1,.727.044.875.875,0,0,1,.554.352.952.952,0,0,1,.166.553.892.892,0,0,1-.307.711,1.034,1.034,0,0,1-.412.2Zm-1.725-1.867h.133a1.643,1.643,0,0,0,.529-.057.427.427,0,0,0,.226-.2.572.572,0,0,0-.113-.655.71.71,0,0,0-.469-.121h-.307Z" transform="translate(-474.324 -628.503)" fill="url(#m)"/><path d="M505.275,628.62h.485v2a2.376,2.376,0,0,1-.069.646,1.1,1.1,0,0,1-.525.63,1.346,1.346,0,0,1-.683.166,1.24,1.24,0,0,1-1.022-.449,1.061,1.061,0,0,1-.218-.485,2.8,2.8,0,0,1-.032-.5v-2h.485v2a1.65,1.65,0,0,0,.057.485.69.69,0,0,0,.331.392.83.83,0,0,0,.4.1.742.742,0,0,0,.634-.291.782.782,0,0,0,.133-.347,2.112,2.112,0,0,0,.02-.331Z" transform="translate(-479.462 -628.503)" fill="url(#n)"/><path d="M515.717,631.01v.6a1.745,1.745,0,0,1-.966.283,1.787,1.787,0,0,1-.727-.158,1.656,1.656,0,0,1-.776-.683,1.777,1.777,0,0,1-.259-.937,1.751,1.751,0,0,1,.259-.937,1.7,1.7,0,0,1,.776-.683,1.787,1.787,0,0,1,.727-.158,1.712,1.712,0,0,1,.966.283v.6a1.29,1.29,0,0,0-.958-.416,1.176,1.176,0,0,0-.8.3,1.378,1.378,0,0,0,0,2.012,1.176,1.176,0,0,0,.8.3A1.318,1.318,0,0,0,515.717,631.01Z" transform="translate(-485.29 -628.336)" fill="url(#o)"/><path d="M524,629.052v2.9h-.485v-2.9h-.8v-.432h2.073v.432Z" transform="translate(-491.089 -628.503)" fill="url(#p)"/><path d="M531.565,628.62v3.337h-.485V628.62Z" transform="translate(-496.072 -628.503)" fill="url(#q)"/><path d="M537.64,628.33a1.747,1.747,0,0,1,.812.2,1.664,1.664,0,0,1,.739.76,1.831,1.831,0,0,1,0,1.64,1.664,1.664,0,0,1-.739.76,1.77,1.77,0,0,1-.832.2,1.751,1.751,0,0,1-1.79-1.778,1.758,1.758,0,0,1,.222-.877,1.7,1.7,0,0,1,.865-.764A1.86,1.86,0,0,1,537.64,628.33Zm-.028.469a1.2,1.2,0,0,0-.521.113,1.221,1.221,0,0,0-.42.327,1.313,1.313,0,0,0-.307.869,1.3,1.3,0,0,0,.38.949,1.177,1.177,0,0,0,.881.364,1.133,1.133,0,0,0,.933-.444,1.349,1.349,0,0,0,.3-.869,1.3,1.3,0,0,0-.368-.945A1.167,1.167,0,0,0,537.612,628.8Z" transform="translate(-498.903 -628.33)" fill="url(#r)"/><path d="M551.176,628.519v3.406l-2.5-2.343v2.275h-.485V628.45l2.5,2.339v-2.271Z" transform="translate(-506.269 -628.401)" fill="url(#s)"/></g><g transform="translate(379.94 362.87)"><g transform="translate(65.229 9.664)"><path d="M541.826,412.06l-.218,65.722v.994l0-.994-.214-65.172.36-.461h0Z" transform="translate(-541.39 -401.85)" fill="url(#t)"/><path d="M546.722,405.76l-.214,68.513,0,.751v-.751l-.214-67.956Z" transform="translate(-544.31 -398.096)" fill="url(#u)"/><path d="M551.618,399.43l-.222,71.35,0,.473,0-.473-.218-70.772Z" transform="translate(-547.219 -394.323)" fill="url(#v)"/><path d="M556.5,393.11l-.23,74.21L556.04,393.7Z" transform="translate(-550.121 -390.557)" fill="url(#w)"/><path d="M561.4,386.79l-.242,76.929-.238-76.311Z" transform="translate(-553.029 -386.79)" fill="url(#x)"/></g><g transform="translate(23.364 14.848)"><path d="M438.247,399.947l-.238,70.291-.238-70.618Z" transform="translate(-437.77 -399.62)" fill="url(#y)"/><path d="M443.137,403.283l-.238,68.946-.238-69.269Z" transform="translate(-440.684 -401.611)" fill="url(#z)"/><path d="M448.039,406.619l-.234,67.6L447.57,406.3Z" transform="translate(-443.611 -403.601)" fill="url(#aa)"/><path d="M452.941,409.961l-.23,66.255-.23-66.566Z" transform="translate(-446.537 -405.598)" fill="url(#ab)"/><path d="M457.838,413.3l-.226,64.909-.222-65.216Z" transform="translate(-449.463 -407.588)" fill="url(#ac)"/></g><path d="M457.831,401.671l0,1.216-.473-.323,0-1.224Z" transform="translate(-426.075 -385.797)" fill="url(#ad)"/><path d="M496.967,389.37l-.222,73.919v1.03l-.016,4.008-.012-4.008,0-1.03-.222-73.483v-.069l.238-.182Z" transform="translate(-449.402 -378.664)" fill="url(#ae)"/><path d="M492.079,394.43l-.218,71.907,0,1.026-.012,3.98-.012-3.98,0-1.026-.218-71.4Z" transform="translate(-446.493 -381.679)" fill="url(#af)"/><path d="M487.185,399.69l-.218,69.834v1.026l-.016,3.927-.012-3.923,0-1.03-.214-69.337Z" transform="translate(-443.579 -384.814)" fill="url(#ag)"/><path d="M482.288,404.96l-.21,67.786,0,1.026-.008,3.846-.016-3.842v-1.03l-.21-67.305Z" transform="translate(-440.671 -387.955)" fill="url(#ah)"/><path d="M477.392,410.22l-.2,65.766-.008,1.03-.008,3.737-.012-3.733,0-1.034-.2-65.3Z" transform="translate(-437.762 -391.09)" fill="url(#ai)"/><path d="M501.547,389.938v.02l-.222,73.446,0,1.03-.012,4.093-.012-4.093,0-1.03-.222-73.834.4.307Z" transform="translate(-452.131 -378.783)" fill="url(#aj)"/><path d="M506.439,395.029l-.218,71.345v1.034l-.016,4.069-.012-4.073,0-1.03-.218-71.855Z" transform="translate(-455.052 -381.733)" fill="url(#ak)"/><path d="M511.345,400.283l-.218,69.285,0,1.03-.012,4.02-.012-4.024,0-1.03-.214-69.774Z" transform="translate(-457.978 -384.874)" fill="url(#al)"/><path d="M516.238,405.531l-.206,67.245,0,1.03-.012,3.947L516,473.806l0-1.03-.21-67.725Z" transform="translate(-460.904 -388.009)" fill="url(#am)"/><path d="M521.142,410.779l-.2,65.233,0,1.03-.012,3.846-.012-3.846,0-1.034-.2-65.7Z" transform="translate(-463.836 -391.143)" fill="url(#an)"/><g transform="translate(36.147 4.464)"><path d="M502.131,390.391v.02l-.081-.081Z" transform="translate(-488.863 -383.7)" fill="url(#ao)"/><path d="M493.586,386.873l-.687.727-11.4-12.218L470.1,387.6l-.687-.723L481.5,373.92Z" transform="translate(-469.41 -373.92)" fill="#191b22"/></g><path d="M456.178,449.952V362.87l-1.927,2.477-6.65,8.569-.473.606-1.507,1.927v.012l-.477.614-2.5,3.224-.246.319v66.756q-.921-.109-1.854-.206V380.59l-.279-.3-12.088-12.953-12.088,12.949-.279.3v66.631c-.505.053-1.006.113-1.507.174V380.517l-2.606-1.774-.481-.327-10.367-7.05-.117-.077v4.679l-.016,72.452v1.539l-.15.036a72,72,0,0,0-20.625,8.694,97.583,97.583,0,0,1,20.625-6.533c.21-.04.42-.089.634-.125,4.028-.808,8.25-1.446,12.621-1.879.82-.089,1.644-.162,2.473-.23q4.606-.382,9.393-.473c.917-.016,1.838-.028,2.759-.028.707,0,1.414,0,2.117.016,3.224.044,6.4.194,9.494.44.945.073,1.891.158,2.824.251,4.44.44,8.723,1.083,12.8,1.9h0a97.8,97.8,0,0,1,21.259,6.658A72.208,72.208,0,0,0,456.178,449.952Zm-12.787-69,1.761-2.262v-.008l.461-.594,1.515-1.951.461-.594L449.1,373.6l.477-.614,5.418-6.973.21-.271v83.967a102.4,102.4,0,0,0-11.842-2.214V380.982ZM428.176,368.8l11.4,12.217v66.057c-2.937-.279-5.947-.453-9.014-.5-.7-.012-1.414-.02-2.117-.02-.929,0-1.846.012-2.759.032q-4.545.1-8.909.545V381.01ZM401.7,373.16l7.563,5.143.461.311,1.5,1.022.477.319,1.64,1.119v66.441a102.327,102.327,0,0,0-11.652,2.2l.016-73.091V373.16Z" transform="translate(-379.94 -362.87)" fill="url(#ap)"/></g></g></svg>