<svg id="Layer_1" enable-background="new 0 0 512 512" height="512" viewBox="0 0 512 512" width="512" xmlns="http://www.w3.org/2000/svg"><path d="m433.917 66.589h-355.834c-38.091 0-69.08 30.989-69.08 69.08v240.633c0 38.106 30.989 69.108 69.08 69.108h355.833c38.091 0 69.08-31.002 69.08-69.108v-240.633c.001-38.091-30.988-69.08-69.079-69.08zm55.077 309.713c0 30.385-24.708 55.105-55.077 55.105h-355.834c-30.37 0-55.077-24.72-55.077-55.105v-240.633c0-30.37 24.708-55.077 55.077-55.077h355.833c30.369 0 55.077 24.708 55.077 55.077v240.633zm-158.38-138.886-62.472-28.572-67.608-30.968c-6.813-3.082-14.417-2.749-20.832.9-6.754 3.799-10.627 10.259-10.627 17.725v118.999c0 7.465 3.874 13.925 10.598 17.708 3.517 2 7.373 3.007 11.255 3.007 3.255 0 6.528-.708 9.633-2.131l67.576-30.925 62.476-28.573.022-.01c7.712-3.56 12.316-10.503 12.316-18.574.002-7.995-4.729-15.117-12.337-18.586zm-5.837 24.44-62.464 28.568-67.581 30.928c-2.746 1.257-5.559 1.149-8.164-.333-2.315-1.302-3.49-3.16-3.49-5.52v-118.998c0-2.36 1.174-4.217 3.519-5.536 1.398-.795 2.869-1.193 4.358-1.193 1.256 0 2.526.283 3.777.849l67.582 30.956 62.483 28.577c1.551.707 4.152 2.407 4.152 5.847.001 3.412-2.61 5.132-4.172 5.855z"/></svg>