<svg width="91" height="78" viewBox="0 0 91 78" fill="none" xmlns="http://www.w3.org/2000/svg">
<path d="M87.5813 44.6541V72.5142C87.5813 74.9934 85.5657 77 83.0753 77H7.93367C5.45224 77 3.4456 74.9934 3.4456 72.5142V44.6541M51.7305 45.4389L86.8019 37.5642C87.0617 37.5642 87.3305 37.5374 87.5723 37.475C88.9698 37.1183 90 35.8697 90 34.3804V19.077C90 17.3201 88.5577 15.8843 86.793 15.8843H4.20705C2.44227 15.8843 1 17.3201 1 19.077V34.3715C1 35.8697 2.05707 37.1272 3.4456 37.4661C3.69643 37.5285 3.9383 37.5553 4.20705 37.5553L39.2785 45.4835M30.6338 9.25816V5.77118C30.6338 3.13142 32.7838 1 35.4265 1H55.8871C58.5387 1 60.6797 3.14034 60.6797 5.77118V9.25816M40.022 40.9263H50.9959C51.4016 40.9263 51.7305 41.2537 51.7305 41.6576V52.9211C51.7305 53.325 51.4016 53.6524 50.9959 53.6524H40.022C39.6164 53.6524 39.2875 53.325 39.2875 52.9211V41.6576C39.2875 41.2537 39.6164 40.9263 40.022 40.9263Z" stroke="white" stroke-width="2" stroke-linecap="round" stroke-linejoin="round"/>
</svg>
