<svg width="49" height="87" viewBox="0 0 49 87" fill="none" xmlns="http://www.w3.org/2000/svg">
<path d="M1.00075 2.94517C1.00075 7.66684 1.00075 12.3885 1.00075 17.1187C1.00075 21.3272 0.932256 25.6468 2.10521 29.7355C2.8672 32.4128 4.65659 34.5513 6.09495 36.8779C7.6703 39.4269 8.11551 42.5576 8.03846 45.5001C7.91003 50.3757 6.67715 55.2171 6.11208 60.05C5.31584 66.8588 3.90316 75.25 6.52304 81.8022C6.95968 82.8885 7.559 83.9235 8.39805 84.7446C9.46826 85.7882 11.0179 86.4383 12.422 85.6513C13.8433 84.8558 14.8364 83.2734 15.4186 81.8107C18.0385 75.2585 16.6258 66.8673 15.8296 60.0585C15.2645 55.2257 14.0316 50.3757 13.9032 45.5086C13.8262 42.5661 14.2714 39.4269 15.8467 36.8864C17.2851 34.5598 19.0659 32.4214 19.8365 29.7441C21.0009 25.6554 20.9409 21.3443 20.9409 17.1273V2.94517M14.3227 2.94517V24.2782M7.61893 2.94517V24.2782M35.0163 1.01202C34.8622 0.960699 34.7081 1.08045 34.7081 1.24297V75.5836C34.7081 75.5836 34.8451 86.1646 39.5626 85.9935C44.2801 85.8224 45.3589 76.9265 43.7407 63.3175C42.1653 50.0335 41.4804 50.3586 42.0797 47.878C42.1054 47.7668 42.2082 47.6898 42.3195 47.6898H46.0267C46.1208 47.6898 46.2065 47.6385 46.2407 47.553C46.6774 46.5693 49.1174 40.154 47.388 23.1662C45.5986 5.57117 37.1824 1.72198 35.0163 1.01202Z" stroke="white" stroke-width="2" stroke-linecap="round" stroke-linejoin="round"/>
</svg>
