<svg width="91" height="104" viewBox="0 0 91 104" fill="none" xmlns="http://www.w3.org/2000/svg">
<path d="M45.5 13.7781C20.9233 13.7781 1 33.7511 1 58.389C1 83.027 20.9233 103 45.5 103C70.0767 103 90 83.027 90 58.389C90 33.7511 70.0767 13.7781 45.5 13.7781ZM45.5 13.7781V20.5128M51.2506 14.1462H51.3223V6.8278C51.3223 6.07351 51.1789 5.36412 50.9192 4.69962C50.0682 2.53552 47.9722 1 45.509 1C43.0457 1 40.9318 2.5445 40.0808 4.71758C39.8211 5.38208 39.6867 6.09147 39.6867 6.83678V14.1642H39.7584M51.6268 55.1294L41.1378 62.9417L61.0051 78.7639L51.6268 55.1294ZM51.6268 55.1294L41.1378 62.9507L31.7505 39.2983L51.6268 55.1294ZM18.8072 85.1394L14.0598 89.8987M76.9671 26.8435L72.2197 31.6027M72.2645 85.2203L77.0119 89.9705M14.024 26.8345L18.7713 31.5937M83.2014 58.4698H89.9194M1.02687 58.389H7.73591M45.5 102.991V96.2653" stroke="white" stroke-width="2" stroke-linecap="round" stroke-linejoin="round"/>
</svg>
