<svg width="39" height="33" viewBox="0 0 39 33" fill="none" xmlns="http://www.w3.org/2000/svg">
<g clip-path="url(#clip0_2379_70)">
<path d="M22.1596 13.1702V25.2002C22.1596 26.1602 21.3796 26.9402 20.4196 26.9402H8.08961L3.21961 31.8102C3.11961 31.9102 2.94961 31.8402 2.94961 31.7002V26.9402H2.33961C1.37961 26.9402 0.599609 26.1602 0.599609 25.2002V13.1702C0.599609 12.2102 1.37961 11.4302 2.33961 11.4302H20.4296C21.3896 11.4302 22.1696 12.2102 22.1696 13.1702H22.1596Z" stroke="#210021" stroke-width="1.2" stroke-linecap="round" stroke-linejoin="round"/>
<path d="M24.0798 16.1001H30.3798L35.2498 20.9701C35.3498 21.0701 35.5198 21.0001 35.5198 20.8601V16.1001H36.1298C37.0898 16.1001 37.8698 15.3201 37.8698 14.3601V2.3401C37.8698 1.3801 37.0898 0.600098 36.1298 0.600098H18.0398C17.0798 0.600098 16.2998 1.3801 16.2998 2.3401V9.5501" stroke="#210021" stroke-width="1.2" stroke-linecap="round" stroke-linejoin="round"/>
<path d="M7.75977 24.0501L11.3998 14.5801V14.5601L11.4098 14.5801L15.0498 24.0501" stroke="#210021" stroke-width="1.2" stroke-linecap="round" stroke-linejoin="round"/>
<path d="M14.0795 21.53H8.72949" stroke="#210021" stroke-width="1.2" stroke-linecap="round" stroke-linejoin="round"/>
<path d="M26.7398 13.7C26.4798 13.72 26.1798 13.68 25.8798 13.61C25.3798 13.5 24.9198 13.29 24.5498 12.92C24.2098 12.58 23.9698 12.18 23.8398 11.71C23.7698 11.46 23.7798 11.2 23.7398 10.94C23.7098 10.76 23.7598 10.58 23.7798 10.4C23.8198 9.90998 23.9898 9.45998 24.1698 9.00998C24.3698 8.51998 24.6198 8.04998 24.8898 7.59998C25.0098 7.39998 25.1498 7.20998 25.3298 7.04998C25.3698 7.01998 25.3598 6.99998 25.3298 6.96998C25.2698 6.93998 25.2198 6.89998 25.1598 6.86998C24.6898 6.62998 24.4498 6.24998 24.4298 5.71998C24.4298 5.61998 24.4298 5.51998 24.4298 5.42998C24.4298 5.39998 24.4298 5.36998 24.4298 5.33998C24.6098 4.65998 24.9198 4.05998 25.4698 3.59998C25.7198 3.38998 26.0098 3.30998 26.3298 3.37998C26.4398 3.39998 26.5398 3.44998 26.6398 3.50998C26.9798 3.69998 27.2598 3.95998 27.4398 4.30998C27.4798 4.38998 27.4898 4.46998 27.4798 4.54998C27.4798 4.60998 27.4398 4.62998 27.3898 4.60998C27.2998 4.56998 27.1898 4.56998 27.1098 4.50998C27.1098 4.50998 27.1098 4.50998 27.0998 4.50998C26.8798 4.47998 26.6598 4.41998 26.4498 4.43998C26.1998 4.45998 25.9598 4.50998 25.7298 4.62998C25.5998 4.69998 25.4898 4.76998 25.3898 4.87998C25.3298 4.94998 25.2798 5.02998 25.2598 5.10998C25.2098 5.24998 25.2898 5.35998 25.3598 5.45998C25.4398 5.56998 25.5398 5.64998 25.6498 5.72998C26.0198 5.98998 26.4198 6.02998 26.8498 5.88998C27.3698 5.70998 27.8498 5.42998 28.3398 5.17998C28.3498 5.17998 28.3698 5.15998 28.3798 5.15998C28.4598 5.11998 28.5098 5.15998 28.5098 5.24998C28.5098 5.26998 28.5098 5.28998 28.4998 5.29998C28.4698 5.42998 28.4598 5.55998 28.4298 5.67998C28.3898 5.85998 28.3698 6.03998 28.3398 6.21998C28.3098 6.36998 28.2798 6.38998 28.1298 6.41998C27.9898 6.43998 27.8698 6.50998 27.7498 6.56998C26.9898 6.93998 26.2698 7.37998 25.6498 7.96998C25.2198 8.37998 24.8798 8.84998 24.6698 9.41998C24.5698 9.67998 24.5098 9.94998 24.4798 10.23C24.4398 10.53 24.4598 10.82 24.4998 11.12C24.5798 11.72 24.9498 12.03 25.4898 12.23C25.7598 12.33 26.0398 12.38 26.3198 12.43C26.3698 12.43 26.4098 12.43 26.4598 12.44C27.0898 12.48 27.7298 12.48 28.3598 12.43C28.6298 12.41 28.9098 12.38 29.1798 12.34C29.3398 12.31 29.4998 12.3 29.6498 12.28C29.8998 12.24 30.1498 12.2 30.3898 12.12C30.4398 12.1 30.4898 12.07 30.5498 12.04C30.5798 12.03 30.6198 12 30.6398 12.04C30.6598 12.07 30.6398 12.1 30.6298 12.13C30.5698 12.22 30.5098 12.32 30.4298 12.4C30.2898 12.56 30.1298 12.7 29.9498 12.81C29.5298 13.08 29.0698 13.28 28.5798 13.42C28.3698 13.48 28.1598 13.53 27.9498 13.59C27.7798 13.64 27.6098 13.63 27.4498 13.67C27.2398 13.72 27.0198 13.73 26.7598 13.73L26.7398 13.7Z" fill="#210021" stroke="#210021" stroke-width="0.4" stroke-miterlimit="10"/>
</g>
<defs>
<clipPath id="clip0_2379_70">
<rect width="39" height="33" fill="white"/>
</clipPath>
</defs>
</svg>
