<svg width="92" height="92" viewBox="0 0 92 92" fill="none" xmlns="http://www.w3.org/2000/svg">
<path d="M52.6279 22.8886L54.8635 25.6731M59.0509 30.8982L73.7237 49.2071M75.8174 51.8238L78.0529 54.6083M11.0621 47.9239L35.7363 1.60236C36.0366 1.04881 36.7206 0.839137 37.2795 1.13268L47.648 6.71844C46.2049 9.42745 46.6053 12.6229 48.3988 14.8706M6.97472 71.005L1.60278 68.1114C1.05224 67.8095 0.835357 67.1218 1.13565 66.5598L1.74458 65.4276M28.1706 15.8435L31.307 17.5293M38.9645 21.6557L42.1009 23.3415M72.9813 32.5672C75.5421 35.7627 80.1883 36.2659 83.3665 33.6911L90.7487 42.9001C91.1408 43.3949 91.0657 44.1162 90.5819 44.5104L33.5175 90.748C33.0253 91.1422 32.308 91.0667 31.9159 90.5719L24.5336 81.3629C27.7118 78.7881 28.2123 74.1082 25.6514 70.9127C23.0906 67.7173 18.436 67.214 15.2662 69.7888L7.88395 60.5799C7.4919 60.0851 7.56697 59.3638 8.05912 58.9696L65.1235 12.7403C65.6157 12.3461 66.3247 12.4216 66.7251 12.9164L74.1074 22.1254C70.9292 24.7002 70.4288 29.3802 72.9896 32.5672H72.9813Z" stroke="white" stroke-width="2" stroke-linecap="round" stroke-linejoin="round"/>
</svg>
