<svg width="22" height="23" viewBox="0 0 22 23" fill="none" xmlns="http://www.w3.org/2000/svg">
<mask id="path-1-inside-1_2377_15" fill="white">
<path d="M13.5441 9.10484C13.8414 8.46774 14 7.75806 14 7.00806C14 4.24194 11.7601 2 9.00498 2C6.24976 2 4 4.23387 4 7C4 9.76613 6.1011 11.871 8.74729 12"/>
</mask>
<path d="M14.4503 9.52774C14.811 8.75481 15 7.90038 15 7.00806H13C13 7.61575 12.8719 8.18067 12.6379 8.68194L14.4503 9.52774ZM15 7.00806C15 3.69162 12.3144 1 9.00498 1V3C11.2059 3 13 4.79225 13 7.00806H15ZM9.00498 1C5.70019 1 3 3.67887 3 7H5C5 4.78887 6.79933 3 9.00498 3V1ZM3 7C3 10.3105 5.53072 12.8443 8.69859 12.9988L8.796 11.0012C6.67148 10.8976 5 9.22179 5 7H3Z" fill="black" mask="url(#path-1-inside-1_2377_15)"/>
<mask id="path-3-inside-2_2377_15" fill="white">
<path d="M6.39045 11.45L3.66045 12.57C2.24045 13.15 0.88045 14.37 0.40045 15.86C-0.0295502 17.2 0.000449813 18.7199 0.000449813 20.0999H10.9304"/>
</mask>
<path d="M3.66045 12.57L4.03858 13.4957L4.04001 13.4951L3.66045 12.57ZM0.40045 15.86L-0.55138 15.5533L-0.551726 15.5544L0.40045 15.86ZM0.000449813 20.0999H-0.99955V21.0999H0.000449813V20.0999ZM6.01089 10.5248L3.28089 11.6448L4.04001 13.4951L6.77001 12.3751L6.01089 10.5248ZM3.28232 11.6442C1.66096 12.3064 0.0404921 13.7161 -0.551379 15.5533L1.35228 16.1666C1.72041 15.0238 2.81994 13.9935 4.03858 13.4957L3.28232 11.6442ZM-0.551726 15.5544C-1.04001 17.076 -0.99955 18.7747 -0.99955 20.0999H1.00045C1.00045 18.665 0.980906 17.3239 1.35263 16.1655L-0.551726 15.5544ZM0.000449813 21.0999H10.9304V19.0999H0.000449813V21.0999Z" fill="black" mask="url(#path-3-inside-2_2377_15)"/>
<path d="M11.9102 11.6802H21.4002V17.4502H11.9102V11.6802Z" stroke="#210021" stroke-linecap="round" stroke-linejoin="round"/>
<path d="M13.5 21.7H19.8" stroke="#210021" stroke-linecap="round" stroke-linejoin="round"/>
<path d="M16.6504 21.7001V18.0601" stroke="#210021" stroke-linecap="round" stroke-linejoin="round"/>
</svg>
