<svg width="52" height="52" viewBox="0 0 52 52" fill="none" xmlns="http://www.w3.org/2000/svg">
<path d="M45.7057 41.3724C47.1043 39.579 48.2713 37.5797 49.1466 35.4431L44.5215 36.9533L45.7057 41.3724ZM35.7606 49.0264C37.8715 48.1255 39.8365 46.9413 41.6041 45.5341L36.8847 44.5988L35.7606 49.0264ZM22.3317 50.734C23.5245 50.9056 24.7429 51 25.9871 51C27.0769 51 28.1495 50.9228 29.2049 50.7855L26.236 47.5334L22.3317 50.734ZM10.8421 45.8859C12.7642 47.3532 14.9094 48.5459 17.2176 49.4126L15.4414 44.4958L10.8421 45.8859ZM2.84486 35.4431C3.8059 37.7942 5.1016 39.9652 6.69761 41.8958L7.71014 36.653L2.84486 35.4431ZM1.18878 22.941C1.06865 23.9449 1 24.966 1 26.0043C1 27.4544 1.12871 28.8703 1.36897 30.2518L4.73262 26.2703L1.18878 22.941ZM6.39729 10.4903C4.93856 12.3352 3.72868 14.386 2.8277 16.5998L7.31543 15.5358L6.39729 10.4903ZM16.1965 2.99931C13.9655 3.95178 11.9061 5.21315 10.0613 6.74052L15.2097 7.56427L16.1965 2.99931ZM30.3891 1.39471C28.9646 1.14587 27.4973 1 25.9957 1C25.0175 1 24.0479 1.06007 23.104 1.17161L26.5191 4.73262L30.3891 1.39471ZM42.179 6.95504C40.2912 5.35044 38.1546 4.01184 35.8464 3.02506L37.1335 7.98473L42.179 6.95504ZM49.3868 17.1661C48.4944 14.8064 47.2502 12.6183 45.7314 10.6619L44.4186 15.5444L49.3868 17.1661ZM50.6224 30.2861C50.8627 28.896 51 27.463 51 26.0043C51 24.7515 50.9056 23.5159 50.7254 22.3146L46.8984 26.236L50.631 30.2861H50.6224ZM9.70946 14.6691L21.0103 20.6756L14.3087 9.79526L9.04016 9.38339L9.70088 14.6777L9.70946 14.6691ZM5.43625 24.1337L18.2301 24.271L7.28111 17.6896L2.41582 19.7403L5.43625 24.1337ZM7.25536 34.6966L18.2216 28.098L5.44483 28.2353L2.37292 32.5342L7.24678 34.688L7.25536 34.6966ZM14.0342 42.874L20.0578 31.5818L9.16887 38.2576L8.74841 43.5262L14.0427 42.874H14.0342ZM23.7304 46.7182L23.902 33.9243L17.2948 44.8562L19.3371 49.7301L23.739 46.7182H23.7304ZM34.1474 44.7361L27.8062 33.6154L27.6432 46.3921L31.8735 49.5584L34.1474 44.7361ZM41.9816 38.1718L30.9897 31.6161L37.1421 42.814L42.3849 43.4833L41.9816 38.1632V38.1718ZM46.0489 28.3125L33.255 28.0036L44.1182 34.7309L49.0093 32.7402L46.0489 28.3039V28.3125ZM43.7064 17.4407L32.7573 24.0736L45.5341 23.8934L48.5888 19.5859L43.7064 17.4407ZM37.6312 10.19L31.024 21.1562L42.2476 15.0553L42.9427 9.82101L37.6226 10.1986L37.6312 10.19ZM28.2524 6.50026L27.2313 19.2598L34.5593 8.79132L32.8517 3.79732L28.261 6.50884L28.2524 6.50026ZM17.7325 7.96757L23.7132 19.2856L24.2796 6.51742L20.1522 3.21383L17.7325 7.96757Z" stroke="#372F16" stroke-width="0.7" stroke-miterlimit="10"/>
</svg>
