<svg width="87" height="83" viewBox="0 0 87 83" fill="none" xmlns="http://www.w3.org/2000/svg">
<path d="M49.052 16.2976H60.5496V28.6583M23.6016 16.2976H38.2559M35.0907 82H1V16.2976H12.7286M74.203 43.3175V49.1488C74.203 54.4438 69.8829 58.7428 64.5618 58.7428C59.2407 58.7428 54.9206 54.4438 54.9206 49.1488V43.3175M43.5 23.9762V13.6246C43.5 6.65255 37.8196 1 30.8133 1C23.807 1 18.1266 6.65255 18.1266 13.6246V23.9762M41.6522 23.9762H45.4334M16.159 23.9762H19.9402M53.03 43.011H56.8026M72.3124 43.011H76.0936M42.0371 34.413H86V82H42.0371V34.413Z" stroke="white" stroke-width="2" stroke-linecap="round" stroke-linejoin="round"/>
</svg>
