<svg width="93" height="54" viewBox="0 0 93 54" fill="none" xmlns="http://www.w3.org/2000/svg">
<path d="M24.7683 29.9283L37.6337 41.6416H11.9448L8.92557 52.1633H1V1H11.9448V29.9283M24.7683 29.9283H11.9448M24.7683 29.9283C24.7683 29.9283 26.7728 25.9985 29.7417 21.9589M24.7683 29.9283L37.6421 41.6332L41.4078 45.0644C42.6575 46.2053 44.5445 46.2813 45.8864 45.2503L50.6166 41.6332L65.9561 29.9283M11.9448 29.9283V19.3728C13.7815 16.8206 16.784 15.1641 20.1556 15.1641C24.567 15.1641 28.3411 18.0037 29.7417 21.9504V21.9589M91.9218 29.9283V53H84.642L81.6311 41.6416H50.6082L65.9561 29.9283M91.9218 29.9283H65.9561M91.9218 29.9283C91.9218 23.8688 92.8275 20.3194 88.4748 18.1897C68.0696 12.7133 45.2993 13.8458 39.093 14.2937C37.9273 14.3782 36.8118 14.7669 35.8725 15.4684C33.6248 17.1417 31.5197 19.5672 29.7417 21.9589" stroke="white" stroke-width="2" stroke-linecap="round" stroke-linejoin="round"/>
</svg>
